<?xml version="1.0" standalone="no"?>
<!DOCTYPE svg PUBLIC "-//W3C//DTD SVG 20010904//EN"
 "http://www.w3.org/TR/2001/REC-SVG-20010904/DTD/svg10.dtd">
<svg version="1.0" xmlns="http://www.w3.org/2000/svg"
 width="950.000000pt" height="1280.000000pt" viewBox="0 0 950.000000 1280.000000"
 preserveAspectRatio="xMidYMid meet">
<metadata>
Created by potrace 1.15, written by Peter Selinger 2001-2017
</metadata>
<g transform="translate(0.000000,1280.000000) scale(0.100000,-0.100000)"
fill="#8bc34a" stroke="none">
<path d="M8767 12775 c-77 -72 -177 -239 -327 -549 -110 -226 -226 -481 -236
-520 -5 -21 -1 -22 248 -45 139 -12 255 -24 256 -26 5 -5 -61 -13 -188 -25
-169 -15 -202 -29 -292 -119 -142 -144 -263 -354 -523 -909 -150 -322 -295
-609 -327 -649 -17 -21 38 -35 157 -41 92 -4 126 -1 200 18 354 88 627 372
798 830 39 104 117 356 118 380 0 8 5 4 11 -10 17 -40 13 -303 -5 -400 -35
-178 -94 -323 -192 -471 -83 -124 -209 -251 -333 -333 -184 -123 -329 -175
-587 -212 -207 -30 -232 -36 -318 -82 -131 -68 -243 -203 -356 -431 -29 -57
-49 -106 -46 -110 4 -3 167 -6 363 -6 292 0 379 3 476 18 135 21 309 64 409
101 338 129 606 378 708 660 l18 51 1 -36 c0 -52 -43 -213 -77 -290 -17 -36
-47 -90 -67 -120 -20 -29 -36 -59 -36 -66 0 -7 18 -26 41 -43 136 -98 333 -94
452 10 149 131 172 359 77 770 -15 69 -60 238 -98 376 -134 479 -148 569 -186
1229 -8 138 -20 367 -25 510 -17 409 -20 456 -38 512 -19 60 -34 66 -76 28z"/>
<path d="M8524 12776 c-95 -30 -219 -116 -599 -418 -342 -271 -477 -366 -620
-437 -207 -103 -394 -161 -815 -251 -505 -109 -822 -200 -1224 -352 -370 -140
-795 -338 -1116 -521 -236 -134 -377 -263 -452 -414 -40 -80 -43 -92 -46 -184
-6 -149 27 -250 111 -338 37 -38 125 -91 152 -91 6 0 21 19 34 43 45 79 164
252 244 355 79 101 108 131 68 70 -75 -113 -149 -308 -181 -478 -46 -235 -48
-458 -9 -955 68 -886 163 -1407 346 -1905 40 -109 163 -394 176 -407 9 -9 91
50 138 99 54 56 119 180 146 278 24 90 24 365 -1 550 -10 77 -20 230 -23 356
-8 342 20 558 126 956 76 287 94 413 95 658 1 158 -4 229 -18 310 -23 128 -65
281 -104 376 l-29 71 67 -66 c60 -59 178 -141 205 -141 5 0 20 55 32 123 46
255 156 507 311 712 54 70 200 223 257 268 l40 32 -46 -60 c-192 -251 -329
-587 -459 -1120 -210 -861 -271 -1242 -271 -1685 1 -281 30 -508 93 -724 l20
-69 22 24 c13 13 97 105 187 204 90 99 216 235 280 301 230 241 254 285 319
590 44 212 76 452 110 839 35 404 49 506 85 630 39 134 84 243 219 525 68 140
133 281 146 312 23 56 25 58 84 78 33 11 64 20 68 20 5 0 -14 -44 -41 -97
-165 -330 -279 -744 -326 -1188 -17 -161 -20 -498 -5 -630 14 -126 31 -206 42
-199 21 13 310 410 451 620 656 976 1040 1852 1117 2553 11 96 15 111 30 111
18 0 22 -45 30 -295 7 -238 18 -325 38 -325 6 0 529 1134 571 1238 13 32 13
36 -4 48 -22 16 -18 16 -71 0z"/>
<path d="M3262 10320 c-62 -22 -253 -136 -430 -257 -1358 -922 -2311 -2414
-2582 -4038 -54 -327 -65 -465 -90 -1140 -13 -330 -24 -426 -84 -731 -63 -318
-79 -453 -73 -594 17 -353 190 -571 581 -736 232 -98 1060 -382 1181 -405 93
-18 277 -18 338 0 62 18 131 79 153 136 30 79 16 197 -49 415 -31 102 -83 295
-117 430 -239 945 -252 985 -355 1140 -92 139 -211 228 -527 398 -247 133
-291 162 -408 277 -65 64 -115 135 -145 209 -16 38 -12 36 78 -50 131 -124
257 -211 426 -297 140 -70 147 -72 217 -72 63 0 76 3 98 24 32 31 49 82 41
124 -4 17 -40 115 -80 217 -174 440 -264 855 -279 1290 l-5 135 14 -107 c32
-248 93 -474 205 -752 70 -174 121 -288 305 -672 90 -188 189 -401 220 -472
165 -388 273 -763 446 -1542 39 -179 74 -327 76 -330 2 -2 37 12 78 33 174 90
329 308 426 599 57 168 78 288 86 468 7 182 -4 324 -53 670 -96 679 -134 1197
-134 1820 0 357 24 945 36 905 3 -9 39 -618 114 -1915 37 -633 76 -876 186
-1132 35 -83 120 -228 132 -228 4 0 45 75 91 166 211 416 406 720 625 972 52
60 115 140 141 178 65 97 202 371 220 440 37 143 2 436 -85 706 -31 97 -37
135 -235 1360 l-95 587 -10 268 c-12 314 -29 442 -74 575 -48 140 -84 193
-248 365 -181 189 -212 242 -212 368 -1 65 3 88 22 125 l24 44 -27 23 c-33 29
-89 30 -163 3z"/>
<path d="M9226 9294 c-94 -83 -261 -147 -466 -178 -58 -9 -361 -48 -675 -86
-907 -112 -1310 -162 -1311 -163 -1 -1 -118 -153 -261 -337 -142 -184 -262
-341 -267 -348 -4 -7 19 -1 51 14 409 184 776 276 1208 304 418 26 496 32 590
46 204 29 365 86 496 174 83 56 49 16 -51 -59 -228 -171 -479 -246 -1035 -306
-495 -53 -677 -95 -901 -208 -283 -142 -528 -397 -781 -812 -95 -155 -207
-355 -202 -359 2 -2 50 -15 107 -30 288 -72 642 -54 1033 54 553 151 1105 466
1490 850 178 178 281 314 381 505 l58 110 0 -116 c0 -125 -9 -165 -48 -218
l-25 -33 34 7 c49 11 125 46 220 102 130 77 189 96 289 96 47 -1 98 -5 114
-10 28 -9 25 -11 -55 -37 -330 -112 -728 -360 -1074 -670 -410 -369 -855 -616
-1375 -765 -251 -71 -468 -105 -819 -126 -275 -17 -398 -38 -498 -84 -188 -88
-315 -227 -601 -657 -198 -297 -376 -602 -528 -905 -72 -145 -204 -426 -204
-436 0 -10 419 58 595 97 668 149 1314 404 1970 778 749 427 1441 958 2295
1762 185 175 185 171 -3 -63 -323 -401 -804 -889 -1190 -1206 -42 -35 -75 -66
-73 -68 12 -13 180 -34 311 -39 386 -17 770 85 1100 290 l90 56 -80 -78 c-136
-132 -290 -219 -528 -297 -158 -52 -301 -83 -627 -136 -135 -22 -279 -46 -320
-55 -206 -41 -425 -111 -555 -177 -84 -42 -233 -142 -224 -151 9 -7 250 -57
394 -81 228 -37 428 -56 665 -64 l215 -7 -70 -33 c-162 -77 -404 -111 -653
-92 -81 6 -236 22 -345 36 -376 47 -570 50 -781 10 -199 -37 -382 -104 -767
-278 -534 -241 -613 -268 -1044 -357 -324 -67 -462 -133 -615 -297 -87 -93
-148 -186 -280 -423 -136 -245 -219 -367 -311 -462 -41 -43 -73 -78 -70 -78 3
0 107 -10 231 -21 330 -30 816 -36 1030 -14 319 32 554 90 810 200 145 62 309
161 417 252 28 23 54 43 57 43 4 0 -35 -61 -85 -136 -50 -75 -89 -137 -87
-139 11 -9 517 145 793 243 425 151 902 369 1250 573 418 244 822 562 1075
843 57 64 106 114 108 111 2 -2 1 -29 -3 -60 -14 -116 -137 -306 -312 -482
-51 -52 -93 -97 -93 -100 0 -3 37 -3 83 -1 192 12 464 146 654 322 119 110
178 219 227 419 44 174 61 378 108 1287 17 320 17 1216 0 1440 -36 486 -90
858 -180 1241 l-27 117 -49 -44z"/>
<path d="M5940 7956 c-267 -234 -504 -531 -794 -995 -43 -68 -227 -383 -408
-700 -909 -1584 -1323 -2267 -1856 -3056 -630 -934 -1264 -1727 -1900 -2376
l-183 -187 -4 -158 c-6 -195 -21 -329 -46 -408 -10 -33 -17 -61 -16 -62 3 -3
247 261 367 396 553 623 1115 1373 1640 2185 460 712 871 1410 1590 2700 826
1482 1114 1951 1574 2560 121 159 140 185 134 185 -2 0 -46 -38 -98 -84z"/>
<path d="M9345 4869 c-4 -6 -5 -12 -2 -15 2 -3 7 2 10 11 7 17 1 20 -8 4z"/>
<path d="M9265 4738 c-79 -109 -235 -265 -311 -311 -77 -47 -174 -83 -256 -97
-35 -6 -160 -15 -278 -20 -156 -7 -238 -15 -299 -30 -147 -36 -261 -104 -312
-186 -26 -42 -28 -40 76 -83 158 -66 337 -97 520 -88 180 8 333 47 488 122
l72 36 -51 -48 c-186 -175 -511 -251 -952 -223 -97 6 -231 15 -297 20 -452 36
-763 -20 -980 -175 -110 -78 -175 -176 -175 -263 0 -110 89 -175 350 -256 245
-76 417 -104 675 -113 207 -7 370 6 554 43 68 14 126 23 128 20 6 -6 -104 -67
-197 -110 -362 -165 -816 -184 -1180 -49 -52 20 -192 84 -310 144 -313 158
-422 187 -654 176 -67 -3 -470 -47 -896 -97 -426 -50 -892 -104 -1035 -120
-468 -54 -605 -85 -779 -171 -145 -72 -200 -133 -303 -334 -36 -71 -77 -147
-90 -167 -12 -21 -23 -41 -23 -46 0 -5 73 -19 162 -31 90 -12 330 -49 533 -82
867 -140 1115 -165 1574 -156 218 4 317 10 471 31 461 62 724 127 899 222 86
47 201 135 252 193 l41 46 -33 -60 c-18 -33 -50 -91 -71 -128 -21 -38 -38 -70
-38 -72 0 -2 32 -11 71 -20 418 -95 881 -39 1262 151 37 19 67 32 67 29 0 -14
-237 -158 -370 -224 -314 -156 -603 -235 -961 -262 -85 -6 -191 -8 -236 -5
-52 5 -83 3 -83 -3 0 -13 134 -133 215 -192 77 -56 233 -137 325 -169 36 -13
69 -27 74 -31 16 -14 -109 -22 -185 -11 -111 16 -213 59 -400 168 -193 114
-259 146 -371 178 -169 49 -361 55 -608 20 -105 -15 -391 -72 -399 -79 -9 -9
105 -148 179 -219 227 -216 557 -345 855 -334 111 4 103 -5 -26 -28 -207 -36
-449 0 -644 95 -130 64 -178 101 -360 278 -225 220 -295 255 -510 256 -76 1
-187 -6 -265 -17 -252 -34 -422 -16 -675 74 -404 144 -484 164 -660 164 -131
0 -210 -16 -299 -61 -58 -30 -116 -71 -116 -84 0 -11 198 -300 293 -429 182
-247 385 -470 558 -615 288 -241 614 -385 1013 -447 117 -18 186 -22 401 -22
273 -1 374 7 635 50 928 153 1795 577 2495 1221 785 721 1324 1747 1485 2826
21 141 36 287 29 287 -3 0 -32 -37 -64 -82z"/>
</g>
</svg>
