<svg width="138" height="43" viewBox="0 0 138 43" fill="none" xmlns="http://www.w3.org/2000/svg">
<g filter="url(#filter0_d_2_5)">
<path d="M18.672 0.399998C21.232 0.399998 23.28 1.136 24.816 2.608C26.352 4.08 27.12 6.064 27.12 8.56C27.12 9.872 26.848 11.152 26.304 12.4C25.792 13.616 25.024 14.624 24 15.424C22.976 16.224 21.712 16.688 20.208 16.816L19.872 16.24C21.12 16.24 22.288 16.432 23.376 16.816C24.464 17.168 25.408 17.712 26.208 18.448C27.008 19.184 27.632 20.096 28.08 21.184C28.56 22.24 28.8 23.488 28.8 24.928C28.8 26.464 28.544 27.808 28.032 28.96C27.52 30.08 26.816 31.024 25.92 31.792C25.024 32.528 23.984 33.088 22.8 33.472C21.616 33.824 20.352 34 19.008 34H5.76C5.504 34 5.28 33.904 5.088 33.712C4.896 33.52 4.8 33.296 4.8 33.04V1.36C4.8 1.104 4.896 0.879999 5.088 0.688C5.28 0.495998 5.504 0.399998 5.76 0.399998H18.672ZM18.432 2.32H6.288L6.816 1.408V16.624L6.336 15.808H18.432C20.32 15.776 21.904 15.152 23.184 13.936C24.464 12.72 25.104 10.912 25.104 8.512C25.104 6.656 24.528 5.168 23.376 4.048C22.224 2.896 20.576 2.32 18.432 2.32ZM18.768 17.776H6.624L6.816 17.488V32.464L6.576 32.08H18.768C21.04 32.08 22.944 31.52 24.48 30.4C26.016 29.248 26.784 27.424 26.784 24.928C26.784 23.264 26.432 21.904 25.728 20.848C25.024 19.792 24.064 19.024 22.848 18.544C21.632 18.032 20.272 17.776 18.768 17.776ZM37.1228 33.04C37.1228 33.296 37.0268 33.52 36.8348 33.712C36.6428 33.904 36.4188 34 36.1628 34C35.8748 34 35.6348 33.904 35.4428 33.712C35.2828 33.52 35.2028 33.296 35.2028 33.04V10.24C35.2028 9.984 35.2988 9.76 35.4908 9.568C35.6828 9.376 35.9068 9.28 36.1628 9.28C36.4508 9.28 36.6748 9.376 36.8348 9.568C37.0268 9.76 37.1228 9.984 37.1228 10.24V33.04ZM36.1628 6.016C35.6508 6.016 35.2348 5.872 34.9148 5.584C34.6268 5.296 34.4828 4.928 34.4828 4.48V4.096C34.4828 3.648 34.6428 3.28 34.9628 2.992C35.2828 2.704 35.6988 2.56 36.2108 2.56C36.6588 2.56 37.0268 2.704 37.3148 2.992C37.6348 3.28 37.7948 3.648 37.7948 4.096V4.48C37.7948 4.928 37.6348 5.296 37.3148 5.584C37.0268 5.872 36.6428 6.016 36.1628 6.016ZM42.8854 9.856H54.0214C54.2774 9.856 54.4854 9.952 54.6454 10.144C54.8374 10.336 54.9334 10.544 54.9334 10.768C54.9334 11.024 54.8374 11.248 54.6454 11.44C54.4854 11.6 54.2774 11.68 54.0214 11.68H42.8854C42.6614 11.68 42.4534 11.584 42.2614 11.392C42.0694 11.2 41.9734 10.992 41.9734 10.768C41.9734 10.512 42.0694 10.304 42.2614 10.144C42.4534 9.952 42.6614 9.856 42.8854 9.856ZM47.7814 2.8C48.0694 2.8 48.2934 2.896 48.4534 3.088C48.6454 3.28 48.7414 3.504 48.7414 3.76V28.768C48.7414 29.824 48.8694 30.608 49.1254 31.12C49.4134 31.6 49.7654 31.92 50.1814 32.08C50.5974 32.208 50.9974 32.272 51.3814 32.272C51.6054 32.272 51.7974 32.24 51.9574 32.176C52.1174 32.112 52.3094 32.08 52.5334 32.08C52.7574 32.08 52.9494 32.176 53.1094 32.368C53.2694 32.528 53.3494 32.72 53.3494 32.944C53.3494 33.232 53.1574 33.488 52.7734 33.712C52.4214 33.904 51.9734 34 51.4294 34C51.2374 34 50.8854 34 50.3734 34C49.8934 33.968 49.3654 33.824 48.7894 33.568C48.2454 33.28 47.7814 32.784 47.3974 32.08C47.0134 31.344 46.8214 30.272 46.8214 28.864V3.76C46.8214 3.504 46.9174 3.28 47.1094 3.088C47.3014 2.896 47.5254 2.8 47.7814 2.8ZM70.8465 34.48C68.4465 34.48 66.3185 33.968 64.4625 32.944C62.6385 31.92 61.1985 30.48 60.1425 28.624C59.0865 26.736 58.5585 24.528 58.5585 22C58.5585 19.312 59.0705 17.024 60.0945 15.136C61.1505 13.248 62.4945 11.808 64.1265 10.816C65.7905 9.792 67.5505 9.28 69.4065 9.28C70.7505 9.28 72.0625 9.504 73.3425 9.952C74.6225 10.368 75.7585 11.04 76.7505 11.968C77.7745 12.864 78.5905 14 79.1985 15.376C79.8385 16.72 80.1905 18.336 80.2545 20.224C80.2545 20.48 80.1585 20.72 79.9665 20.944C79.7745 21.136 79.5505 21.232 79.2945 21.232H59.7105L59.4225 19.408H78.7665L78.2865 19.84V18.976C78.1265 17.28 77.5825 15.856 76.6545 14.704C75.7585 13.552 74.6705 12.688 73.3905 12.112C72.1105 11.504 70.7825 11.2 69.4065 11.2C68.4465 11.2 67.4385 11.424 66.3825 11.872C65.3265 12.288 64.3505 12.944 63.4545 13.84C62.5585 14.704 61.8225 15.808 61.2465 17.152C60.7025 18.496 60.4305 20.064 60.4305 21.856C60.4305 23.808 60.8145 25.6 61.5825 27.232C62.3825 28.864 63.5505 30.176 65.0865 31.168C66.6545 32.16 68.5745 32.656 70.8465 32.656C71.9345 32.656 72.9585 32.48 73.9185 32.128C74.8785 31.744 75.7425 31.248 76.5105 30.64C77.2785 30.032 77.9025 29.376 78.3825 28.672C78.6385 28.384 78.9105 28.24 79.1985 28.24C79.4225 28.24 79.6145 28.336 79.7745 28.528C79.9345 28.688 80.0145 28.88 80.0145 29.104C80.0145 29.328 79.9505 29.52 79.8225 29.68C78.8305 30.96 77.5505 32.08 75.9825 33.04C74.4465 34 72.7345 34.48 70.8465 34.48ZM88.4944 34C88.2064 34 87.9664 33.904 87.7744 33.712C87.6144 33.52 87.5344 33.296 87.5344 33.04V1.36C87.5344 1.104 87.6304 0.879999 87.8224 0.688C88.0144 0.495998 88.2384 0.399998 88.4944 0.399998H106.59C106.846 0.399998 107.07 0.495998 107.262 0.688C107.454 0.879999 107.55 1.104 107.55 1.36C107.55 1.648 107.454 1.888 107.262 2.08C107.07 2.24 106.846 2.32 106.59 2.32H89.3104L89.4544 2.128V15.952L89.2624 15.568H104.43C104.686 15.568 104.91 15.664 105.102 15.856C105.294 16.048 105.39 16.272 105.39 16.528C105.39 16.816 105.294 17.056 105.102 17.248C104.91 17.408 104.686 17.488 104.43 17.488H89.1664L89.4544 17.104V33.04C89.4544 33.296 89.3584 33.52 89.1664 33.712C89.0064 33.904 88.7824 34 88.4944 34ZM115.873 33.04C115.873 33.296 115.777 33.52 115.585 33.712C115.393 33.904 115.169 34 114.913 34C114.625 34 114.385 33.904 114.193 33.712C114.033 33.52 113.953 33.296 113.953 33.04V10.24C113.953 9.984 114.049 9.76 114.241 9.568C114.433 9.376 114.657 9.28 114.913 9.28C115.201 9.28 115.425 9.376 115.585 9.568C115.777 9.76 115.873 9.984 115.873 10.24V33.04ZM114.913 6.016C114.401 6.016 113.985 5.872 113.665 5.584C113.377 5.296 113.233 4.928 113.233 4.48V4.096C113.233 3.648 113.393 3.28 113.713 2.992C114.033 2.704 114.449 2.56 114.961 2.56C115.409 2.56 115.777 2.704 116.065 2.992C116.385 3.28 116.545 3.648 116.545 4.096V4.48C116.545 4.928 116.385 5.296 116.065 5.584C115.777 5.872 115.393 6.016 114.913 6.016ZM121.635 9.856H132.771C133.027 9.856 133.235 9.952 133.395 10.144C133.587 10.336 133.683 10.544 133.683 10.768C133.683 11.024 133.587 11.248 133.395 11.44C133.235 11.6 133.027 11.68 132.771 11.68H121.635C121.411 11.68 121.203 11.584 121.011 11.392C120.819 11.2 120.723 10.992 120.723 10.768C120.723 10.512 120.819 10.304 121.011 10.144C121.203 9.952 121.411 9.856 121.635 9.856ZM126.531 2.8C126.819 2.8 127.043 2.896 127.203 3.088C127.395 3.28 127.491 3.504 127.491 3.76V28.768C127.491 29.824 127.619 30.608 127.875 31.12C128.163 31.6 128.515 31.92 128.931 32.08C129.347 32.208 129.747 32.272 130.131 32.272C130.355 32.272 130.547 32.24 130.707 32.176C130.867 32.112 131.059 32.08 131.283 32.08C131.507 32.08 131.699 32.176 131.859 32.368C132.019 32.528 132.099 32.72 132.099 32.944C132.099 33.232 131.907 33.488 131.523 33.712C131.171 33.904 130.723 34 130.179 34C129.987 34 129.635 34 129.123 34C128.643 33.968 128.115 33.824 127.539 33.568C126.995 33.28 126.531 32.784 126.147 32.08C125.763 31.344 125.571 30.272 125.571 28.864V3.76C125.571 3.504 125.667 3.28 125.859 3.088C126.051 2.896 126.275 2.8 126.531 2.8Z" fill="white"/>
</g>
<defs>
<filter id="filter0_d_2_5" x="0.799988" y="0.399994" width="136.883" height="42.08" filterUnits="userSpaceOnUse" color-interpolation-filters="sRGB">
<feFlood flood-opacity="0" result="BackgroundImageFix"/>
<feColorMatrix in="SourceAlpha" type="matrix" values="0 0 0 0 0 0 0 0 0 0 0 0 0 0 0 0 0 0 127 0" result="hardAlpha"/>
<feOffset dy="4"/>
<feGaussianBlur stdDeviation="2"/>
<feComposite in2="hardAlpha" operator="out"/>
<feColorMatrix type="matrix" values="0 0 0 0 0 0 0 0 0 0 0 0 0 0 0 0 0 0 0.25 0"/>
<feBlend mode="normal" in2="BackgroundImageFix" result="effect1_dropShadow_2_5"/>
<feBlend mode="normal" in="SourceGraphic" in2="effect1_dropShadow_2_5" result="shape"/>
</filter>
</defs>
</svg>
