<svg width="561" height="639" viewBox="0 0 561 639" fill="none" xmlns="http://www.w3.org/2000/svg">
<rect width="549" height="639" rx="20" fill="#F1F8E7"/>
<path d="M467.331 154.994C432.679 133.44 391.142 131.096 354.544 149.042C323.374 164.28 299.123 190.192 267.919 205.441C225.29 226.301 178.484 237.704 135.388 257.687C92.2919 277.67 51.0394 308.988 35.5853 353.916C17.3773 406.981 23.7729 469.378 51.6198 517.891C96.8894 596.743 186.678 624.749 273.12 623.725C455.78 621.574 549.87 400.347 520.066 241.357C513.557 206.909 497.693 173.873 467.331 154.994Z" fill="#D9FFC8"/>
<path opacity="0.7" d="M467.331 154.994C432.679 133.44 391.142 131.096 354.544 149.042C323.374 164.28 299.123 190.192 267.919 205.441C225.29 226.301 178.484 237.704 135.388 257.687C92.2919 277.67 51.0394 308.988 35.5853 353.916C17.3773 406.981 23.7729 469.378 51.6198 517.891C96.8894 596.743 186.678 624.749 273.12 623.725C455.78 621.574 549.87 400.347 520.066 241.357C513.557 206.909 497.693 173.873 467.331 154.994Z" fill="#D8E6D5"/>
<rect x="12.5" y="13.5" width="522" height="615" rx="19.5" stroke="#285430"/>
<path d="M492.558 275.084C466.752 201.301 427.291 125.925 358.412 84.1084C307.428 53.1524 253.381 61.2308 200.838 83.222C137.501 109.735 92.5201 156.724 81.906 225.716C72.8515 284.542 54.978 341.652 47.124 400.748C39.27 460.214 61.71 525.29 173.91 542.12C205.472 546.855 239.334 544.644 269.213 532.751C309.032 516.897 346.922 490.059 391.578 500.606C450.259 514.463 506.302 487.983 516.12 425.432C525.096 368.21 492.558 275.084 492.558 275.084Z" fill="#92E3A9"/>
<path opacity="0.7" d="M492.558 275.084C466.752 201.301 427.291 125.925 358.412 84.1084C307.428 53.1524 253.381 61.2308 200.838 83.222C137.501 109.735 92.5201 156.724 81.906 225.716C72.8515 284.542 54.978 341.652 47.124 400.748C39.27 460.214 61.71 525.29 173.91 542.12C205.472 546.855 239.334 544.644 269.213 532.751C309.032 516.897 346.922 490.059 391.578 500.606C450.259 514.463 506.302 487.983 516.12 425.432C525.096 368.21 492.558 275.084 492.558 275.084Z" fill="white"/>
<path d="M89 545.784L131.117 506H465.394L490.703 545.784H89Z" fill="white" stroke="#263238" stroke-width="1.138" stroke-linecap="round" stroke-linejoin="round"/>
<path d="M490.703 545.784H89V556.493H490.703V545.784Z" fill="#263238" stroke="#263238" stroke-width="1.138" stroke-linecap="round" stroke-linejoin="round"/>
<g opacity="0.3">
<path d="M100.15 141.241C90.175 153.19 88.234 174.25 89.6589 183.271C89.6589 183.271 92.419 207.955 112.256 217.873C132.093 227.792 157.495 219.904 173.427 193.862C189.36 167.821 169.074 138.323 149.484 130.896C129.894 123.468 110.135 129.28 100.15 141.241ZM142.572 175.226C140.575 182.508 134.326 185.874 128.817 182.25C127.308 181.216 126.108 179.793 125.346 178.131C124.583 176.469 124.286 174.631 124.486 172.814C124.586 170.803 125.437 168.904 126.87 167.491C128.304 166.078 130.216 165.255 132.228 165.184C136.547 164.915 144.57 167.955 142.572 175.226Z" stroke="black" stroke-width="1.122" stroke-miterlimit="10"/>
<path d="M177.029 176.27C176.67 170.547 178.813 164.107 174.875 159.81C171.509 156.163 171.285 151.238 169.534 146.772C167.749 144.365 165.763 142.113 163.599 140.04C162.219 139.625 160.67 139.502 158.774 139.019C154.477 137.897 154.836 133.656 147.689 132.579C140.542 131.502 137.669 132.579 134.808 132.579C132.808 132.509 130.843 132.036 129.03 131.188C129.03 131.188 123.667 127.608 115.79 132.31C107.914 137.011 107.566 141.97 102.203 146.267C99.5102 148.422 96.593 149.409 94.4051 150.845C93.2704 153.482 92.3364 156.202 91.6113 158.98C92.9128 166.441 97.4906 172.567 96.0993 177.044C94.6744 181.689 89.3 183.125 91.4542 189.206C93.6085 195.288 96.8174 195.288 97.5355 201.369C98.2535 207.45 106.511 214.967 110.775 214.967C115.039 214.967 116.138 212.465 124.015 216.404C131.891 220.342 134.752 219.972 139.038 216.751C143.324 213.531 141.192 214.249 148.34 213.183C155.487 212.118 160.154 209.604 161.938 204.948C163.722 200.292 163.374 201.369 169.792 195.647C176.21 189.924 177.377 181.958 177.029 176.27ZM142.573 175.226C140.575 182.508 134.326 185.874 128.817 182.25C127.308 181.217 126.109 179.793 125.346 178.131C124.583 176.469 124.286 174.631 124.486 172.814C124.586 170.803 125.437 168.904 126.871 167.491C128.304 166.078 130.216 165.255 132.228 165.184C136.547 164.915 144.57 167.956 142.573 175.226Z" stroke="black" stroke-width="1.122" stroke-miterlimit="10"/>
<path d="M162.354 176.629C155.195 181.633 141.597 202.435 144.817 193.459C148.037 184.483 151.257 178.783 144.469 182.003C137.681 185.223 126.573 196.679 120.907 197.027C115.645 197.363 123.667 187.725 127.785 181.442C125.825 179.641 124.649 177.144 124.509 174.486C121.995 174.145 119.439 174.267 116.969 174.845C115.578 175.26 119.213 174.171 124.61 172.32C124.817 170.409 125.708 168.636 127.118 167.329C128.528 166.022 130.363 165.268 132.284 165.207C134.662 165.127 137.014 165.718 139.072 166.912C143.931 164.881 148.306 162.749 150.607 160.898C158.113 154.806 142.753 152.304 134.506 153.74C126.259 155.176 142.73 149.443 144.166 142.643C145.602 135.844 135.19 136.203 121.625 143.765C108.06 151.327 108.745 148.41 118.753 141.622C128.761 134.834 122.332 133.768 117.631 136.248C117.631 136.248 97.233 153.785 96.8739 161.291C96.5149 168.797 103.314 165.947 112.582 157.005C121.85 148.062 140.138 139.109 136.559 145.19C132.98 151.271 112.223 162.02 119.729 162.02C127.235 162.02 142.27 154.862 145.131 157.375C147.992 159.888 107.208 167.742 102.203 181.341C97.1993 194.94 125.451 173.835 122.949 179.916C120.447 185.997 99.376 199.529 109.036 207.764C118.697 216 137.67 184.505 140.89 188.802C144.11 193.1 129.793 210.984 140.172 205.98C150.55 200.976 168.435 174.845 168.435 179.86C168.435 184.875 139.454 205.666 145.535 209.559C151.616 213.453 173.809 184.875 174.875 177.358C175.941 169.84 169.512 171.613 162.354 176.629Z" stroke="black" stroke-width="1.122" stroke-miterlimit="10"/>
</g>
<g opacity="0.3">
<path d="M394.114 334.225C384.139 346.174 382.198 367.234 383.623 376.255C383.623 376.255 386.383 400.939 406.22 410.857C426.057 420.776 451.459 412.888 467.392 386.846C483.324 360.805 463.038 331.307 443.448 323.88C423.858 316.452 404.1 322.264 394.114 334.225ZM436.537 368.21C434.54 375.492 428.29 378.858 422.781 375.234C421.272 374.2 420.073 372.777 419.31 371.115C418.547 369.453 418.25 367.615 418.45 365.798C418.55 363.787 419.401 361.888 420.835 360.475C422.268 359.062 424.18 358.239 426.192 358.168C430.512 357.899 438.534 360.939 436.537 368.21Z" stroke="black" stroke-width="1.122" stroke-miterlimit="10"/>
<path d="M470.993 369.253C470.634 363.531 472.777 357.091 468.839 352.794C465.473 349.147 465.248 344.222 463.498 339.756C461.712 337.349 459.727 335.097 457.562 333.024C456.182 332.609 454.634 332.486 452.738 332.003C448.441 330.937 448.8 326.64 441.652 325.563C434.505 324.486 431.633 325.563 428.772 325.563C426.785 325.476 424.835 324.992 423.039 324.138C423.039 324.138 417.675 320.559 409.799 325.204C401.922 329.849 401.575 334.864 396.211 339.161C393.519 341.316 390.601 342.303 388.414 343.739C387.279 346.377 386.345 349.096 385.62 351.874C386.921 359.335 391.499 365.461 390.108 369.938C388.717 374.415 383.308 376.019 385.463 382.1C387.617 388.182 390.826 388.182 391.544 394.263C392.262 400.344 400.52 407.862 404.784 407.862C409.047 407.862 410.147 405.359 418.023 409.298C425.9 413.236 428.761 412.866 433.047 409.645C437.333 406.425 435.201 407.143 442.348 406.078C449.495 405.012 454.163 402.498 455.947 397.842C457.731 393.186 457.383 394.263 463.801 388.541C470.219 382.818 471.341 374.942 470.993 369.253ZM436.536 368.21C434.539 375.492 428.289 378.858 422.78 375.234C421.272 374.2 420.072 372.777 419.309 371.115C418.547 369.453 418.249 367.615 418.45 365.798C418.55 363.787 419.401 361.888 420.834 360.475C422.268 359.062 424.18 358.239 426.191 358.168C430.511 357.899 438.533 360.939 436.536 368.21Z" stroke="black" stroke-width="1.122" stroke-miterlimit="10"/>
<path d="M456.318 369.613C449.159 374.617 435.561 395.419 438.781 386.443C442.001 377.467 445.221 371.767 438.433 374.987C431.645 378.207 420.537 389.663 414.815 390.01C409.553 390.347 417.575 380.709 421.693 374.426C419.733 372.625 418.557 370.128 418.416 367.469C415.902 367.129 413.347 367.251 410.877 367.829C409.485 368.244 413.121 367.155 418.517 365.304C418.725 363.393 419.615 361.62 421.025 360.313C422.436 359.006 424.27 358.252 426.192 358.191C428.551 358.121 430.882 358.712 432.924 359.896C437.782 357.865 442.158 355.733 444.458 353.882C451.964 347.79 436.604 345.288 428.357 346.724C420.111 348.16 436.582 342.426 438.018 335.627C439.454 328.828 429.042 329.187 415.477 336.749C401.912 344.311 402.596 341.394 412.604 334.606C422.613 327.818 416.184 326.752 411.482 329.232C411.482 329.232 391.085 346.769 390.725 354.275C390.366 361.781 397.166 358.931 406.433 349.989C415.701 341.046 433.99 332.093 430.411 338.174C426.831 344.255 406.074 355.004 413.581 355.004C421.087 355.004 436.122 347.846 438.983 350.359C441.844 352.872 401.059 360.726 396.055 374.325C391.051 387.924 419.303 366.819 416.801 372.9C414.299 378.981 393.34 392.513 403 400.748C412.661 408.983 431.634 377.489 434.854 381.786C438.074 386.083 423.757 403.968 434.136 398.964C444.514 393.96 462.399 367.829 462.399 372.844C462.399 377.859 433.418 398.65 439.499 402.543C445.58 406.437 467.773 377.859 468.839 370.342C469.905 362.824 463.476 364.597 456.318 369.613Z" stroke="black" stroke-width="1.122" stroke-miterlimit="10"/>
</g>
<g opacity="0.3">
<path d="M412.122 235.814C418.574 249.996 436.716 260.857 445.457 263.483C445.457 263.483 468.873 271.684 486.432 258.108C503.992 244.532 507.862 218.21 491.291 192.561C474.719 166.912 439.342 172.432 424.161 186.872C408.981 201.313 405.671 221.587 412.122 235.814ZM461.142 212.252C466.842 217.2 467.168 224.302 461.513 227.702C459.926 228.615 458.121 229.079 456.291 229.046C454.461 229.012 452.675 228.482 451.123 227.511C449.357 226.546 448.015 224.955 447.363 223.051C446.711 221.147 446.796 219.068 447.6 217.223C449.227 213.217 455.443 207.304 461.142 212.252Z" stroke="black" stroke-width="1.122" stroke-miterlimit="10"/>
<path d="M425.036 188.813C422.792 195.848 421.771 197.789 418.136 201.301C414.5 204.813 412.593 210.524 413.019 213.576C413.537 217.183 413.699 220.832 413.502 224.471C413.42 226.964 413.919 229.442 414.961 231.709C416.003 233.976 417.559 235.969 419.505 237.531C422.714 239.861 425.471 242.758 427.639 246.08C430.826 250.467 429.782 251.455 434.528 253.845C439.274 256.234 448.273 261.025 448.273 261.025C448.273 261.025 458.539 265.592 463.139 263.685C467.739 261.777 473.237 255.079 476.805 253.587C480.373 252.094 482.056 255.999 486.791 249.031C491.526 242.064 492.917 236.79 495.767 234.075C498.617 231.36 499.368 221.733 495.43 217.615C491.492 213.497 489.551 209.873 488.956 203.029C488.362 196.185 486.454 192.079 479.172 189.565C471.891 187.052 466.483 180.892 463.756 178.547C461.03 176.202 453.658 176.774 449.058 179.187C444.458 181.599 440.239 177.706 435.381 179.86C433.821 180.544 432.43 180.982 431.185 181.487C429.868 182.235 428.623 183.054 427.448 183.944C426.313 185.381 425.492 187.04 425.036 188.813ZM448.194 213.699C451.223 214.283 452.873 208.751 458.191 208.639C463.509 208.527 460.435 211.478 461.142 212.252C462.378 213.313 463.426 214.576 464.239 215.988C465.151 217.148 465.76 218.517 466.011 219.971C466.191 222.754 466.404 224.538 468.11 226.849C469.815 229.161 466.023 229.329 462.724 230.013C459.425 230.698 459.167 230.428 456.587 232.381C454.006 234.333 450.292 230.956 450.292 230.956C450.292 230.956 448.048 230.148 445.86 226.288C443.672 222.429 445.972 221.8 444.02 218.659C442.068 215.517 445.176 213.116 448.194 213.699Z" stroke="black" stroke-width="1.122" stroke-miterlimit="10"/>
<path d="M452.234 192.606C452.236 193.126 452.084 193.635 451.796 194.069C451.508 194.502 451.098 194.84 450.618 195.041C450.138 195.241 449.609 195.294 449.099 195.193C448.589 195.092 448.12 194.841 447.752 194.474C447.384 194.106 447.134 193.637 447.033 193.127C446.932 192.616 446.985 192.087 447.185 191.607C447.385 191.127 447.723 190.717 448.157 190.429C448.59 190.142 449.099 189.989 449.62 189.992C450.313 189.992 450.978 190.267 451.468 190.757C451.958 191.248 452.234 191.913 452.234 192.606Z" stroke="black" stroke-width="1.122" stroke-miterlimit="10"/>
<path d="M433.889 200.101C434.508 200.101 435.011 199.598 435.011 198.979C435.011 198.359 434.508 197.857 433.889 197.857C433.269 197.857 432.767 198.359 432.767 198.979C432.767 199.598 433.269 200.101 433.889 200.101Z" stroke="black" stroke-width="1.122" stroke-miterlimit="10"/>
<path d="M442.124 186.053C442.124 186.386 442.026 186.712 441.841 186.988C441.656 187.265 441.393 187.481 441.085 187.608C440.778 187.736 440.439 187.769 440.113 187.704C439.786 187.639 439.487 187.479 439.251 187.243C439.016 187.008 438.856 186.708 438.791 186.382C438.726 186.055 438.759 185.717 438.886 185.409C439.014 185.102 439.23 184.839 439.506 184.654C439.783 184.469 440.108 184.37 440.441 184.37C440.888 184.37 441.316 184.548 441.631 184.863C441.947 185.179 442.124 185.607 442.124 186.053Z" stroke="black" stroke-width="1.122" stroke-miterlimit="10"/>
<path d="M429.39 215.08C431.044 215.08 432.386 213.738 432.386 212.084C432.386 210.429 431.044 209.088 429.39 209.088C427.735 209.088 426.394 210.429 426.394 212.084C426.394 213.738 427.735 215.08 429.39 215.08Z" stroke="black" stroke-width="1.122" stroke-miterlimit="10"/>
<path d="M467.224 202.536C467.224 202.944 467.103 203.343 466.876 203.683C466.649 204.022 466.326 204.287 465.949 204.443C465.572 204.599 465.157 204.64 464.756 204.56C464.356 204.481 463.988 204.284 463.699 203.995C463.411 203.707 463.214 203.339 463.134 202.938C463.055 202.538 463.096 202.123 463.252 201.746C463.408 201.368 463.673 201.046 464.012 200.819C464.352 200.592 464.751 200.471 465.159 200.471C465.707 200.471 466.232 200.689 466.619 201.076C467.006 201.463 467.224 201.988 467.224 202.536Z" stroke="black" stroke-width="1.122" stroke-miterlimit="10"/>
<path d="M468.345 190.171C468.348 190.507 468.25 190.836 468.065 191.117C467.879 191.397 467.615 191.616 467.305 191.745C466.995 191.875 466.653 191.909 466.323 191.844C465.994 191.779 465.691 191.618 465.453 191.38C465.216 191.143 465.054 190.84 464.989 190.51C464.924 190.18 464.959 189.839 465.088 189.529C465.218 189.219 465.437 188.954 465.717 188.769C465.997 188.584 466.326 188.486 466.662 188.488C467.108 188.491 467.534 188.669 467.849 188.984C468.164 189.299 468.343 189.726 468.345 190.171Z" stroke="black" stroke-width="1.122" stroke-miterlimit="10"/>
<path d="M482.202 204.398C482.202 204.88 482.059 205.35 481.792 205.751C481.524 206.151 481.144 206.463 480.699 206.648C480.254 206.832 479.765 206.88 479.292 206.786C478.82 206.692 478.386 206.46 478.046 206.12C477.705 205.779 477.473 205.345 477.379 204.873C477.285 204.401 477.334 203.911 477.518 203.466C477.702 203.021 478.014 202.641 478.415 202.374C478.815 202.106 479.286 201.963 479.767 201.963C480.413 201.963 481.032 202.22 481.489 202.676C481.945 203.133 482.202 203.752 482.202 204.398Z" stroke="black" stroke-width="1.122" stroke-miterlimit="10"/>
<path d="M485.198 225.009C485.198 225.418 485.077 225.817 484.85 226.156C484.623 226.496 484.301 226.76 483.923 226.917C483.546 227.073 483.131 227.114 482.731 227.034C482.33 226.954 481.962 226.758 481.674 226.469C481.385 226.18 481.188 225.812 481.109 225.412C481.029 225.012 481.07 224.596 481.226 224.219C481.382 223.842 481.647 223.52 481.986 223.293C482.326 223.066 482.725 222.945 483.133 222.945C483.405 222.943 483.674 222.996 483.925 223.099C484.176 223.202 484.404 223.354 484.596 223.546C484.788 223.738 484.94 223.966 485.044 224.217C485.147 224.469 485.199 224.738 485.198 225.009Z" stroke="black" stroke-width="1.122" stroke-miterlimit="10"/>
<path d="M472.464 246.17C472.464 246.614 472.332 247.048 472.085 247.417C471.839 247.786 471.488 248.073 471.078 248.243C470.668 248.413 470.217 248.458 469.782 248.371C469.347 248.284 468.947 248.071 468.633 247.757C468.319 247.443 468.105 247.043 468.019 246.608C467.932 246.173 467.977 245.721 468.146 245.311C468.316 244.901 468.604 244.551 468.973 244.304C469.342 244.058 469.776 243.926 470.22 243.926C470.815 243.926 471.386 244.163 471.806 244.583C472.227 245.004 472.464 245.575 472.464 246.17Z" stroke="black" stroke-width="1.122" stroke-miterlimit="10"/>
<path d="M449.619 249.536C449.619 250.202 449.422 250.853 449.052 251.406C448.682 251.96 448.156 252.391 447.541 252.646C446.926 252.901 446.249 252.967 445.597 252.837C444.944 252.708 444.344 252.387 443.873 251.916C443.402 251.445 443.082 250.846 442.952 250.193C442.822 249.54 442.889 248.863 443.143 248.248C443.398 247.633 443.83 247.107 444.383 246.737C444.937 246.368 445.587 246.17 446.253 246.17C447.146 246.17 448.002 246.525 448.633 247.156C449.265 247.787 449.619 248.643 449.619 249.536Z" stroke="black" stroke-width="1.122" stroke-miterlimit="10"/>
<path d="M435.336 229.082C435.336 229.415 435.238 229.74 435.053 230.017C434.868 230.294 434.605 230.51 434.297 230.637C433.99 230.764 433.651 230.798 433.325 230.733C432.998 230.668 432.699 230.507 432.463 230.272C432.228 230.037 432.067 229.737 432.003 229.41C431.938 229.084 431.971 228.746 432.098 228.438C432.226 228.13 432.441 227.868 432.718 227.683C432.995 227.498 433.32 227.399 433.653 227.399C434.1 227.399 434.528 227.576 434.843 227.892C435.159 228.208 435.336 228.636 435.336 229.082Z" stroke="black" stroke-width="1.122" stroke-miterlimit="10"/>
<path d="M451.863 237.553C451.863 237.851 451.775 238.142 451.609 238.39C451.443 238.637 451.208 238.83 450.933 238.943C450.657 239.057 450.354 239.086 450.062 239.027C449.77 238.968 449.503 238.824 449.293 238.612C449.083 238.401 448.941 238.132 448.884 237.84C448.827 237.547 448.859 237.244 448.974 236.97C449.09 236.695 449.284 236.461 449.533 236.298C449.782 236.134 450.073 236.047 450.371 236.05C450.568 236.05 450.763 236.089 450.945 236.164C451.127 236.24 451.292 236.351 451.43 236.491C451.569 236.63 451.679 236.796 451.753 236.979C451.827 237.161 451.865 237.356 451.863 237.553Z" stroke="black" stroke-width="1.122" stroke-miterlimit="10"/>
<path d="M422.276 221.228C422.276 221.488 422.199 221.742 422.055 221.957C421.91 222.173 421.705 222.342 421.465 222.441C421.226 222.54 420.962 222.566 420.707 222.516C420.452 222.465 420.218 222.34 420.035 222.156C419.851 221.973 419.726 221.739 419.676 221.484C419.625 221.23 419.651 220.966 419.75 220.726C419.85 220.486 420.018 220.281 420.234 220.137C420.45 219.992 420.703 219.915 420.963 219.915C421.136 219.915 421.306 219.949 421.465 220.015C421.625 220.081 421.769 220.178 421.891 220.3C422.013 220.422 422.11 220.567 422.176 220.726C422.242 220.885 422.276 221.056 422.276 221.228Z" stroke="black" stroke-width="1.122" stroke-miterlimit="10"/>
<path d="M432.766 187.366C432.766 187.588 432.701 187.805 432.577 187.989C432.454 188.174 432.279 188.318 432.074 188.403C431.869 188.488 431.643 188.51 431.426 188.467C431.208 188.423 431.008 188.316 430.851 188.159C430.694 188.003 430.587 187.803 430.544 187.585C430.501 187.367 430.523 187.142 430.608 186.937C430.693 186.732 430.837 186.557 431.021 186.433C431.206 186.31 431.423 186.244 431.644 186.244C431.942 186.244 432.227 186.362 432.438 186.573C432.648 186.783 432.766 187.069 432.766 187.366Z" stroke="black" stroke-width="1.122" stroke-miterlimit="10"/>
<path d="M446.623 202.535C446.62 202.784 446.52 203.02 446.343 203.195C446.167 203.369 445.929 203.467 445.681 203.467C445.434 203.467 445.197 203.369 445.022 203.194C444.848 203.019 444.75 202.782 444.75 202.535C444.749 202.287 444.847 202.049 445.022 201.873C445.196 201.697 445.433 201.596 445.681 201.593C445.93 201.596 446.168 201.696 446.344 201.872C446.52 202.048 446.62 202.286 446.623 202.535Z" stroke="black" stroke-width="1.122" stroke-miterlimit="10"/>
<path d="M473.956 215.618C473.956 215.878 473.878 216.132 473.734 216.349C473.589 216.565 473.383 216.733 473.143 216.832C472.902 216.931 472.637 216.956 472.383 216.905C472.128 216.853 471.894 216.727 471.711 216.542C471.527 216.358 471.403 216.123 471.354 215.867C471.305 215.612 471.332 215.348 471.433 215.108C471.534 214.868 471.704 214.664 471.922 214.521C472.139 214.378 472.394 214.303 472.654 214.305C472.826 214.305 472.996 214.339 473.155 214.405C473.313 214.472 473.457 214.568 473.578 214.691C473.699 214.813 473.795 214.957 473.86 215.117C473.924 215.276 473.957 215.446 473.956 215.618Z" stroke="black" stroke-width="1.122" stroke-miterlimit="10"/>
<path d="M486.32 236.801C486.32 237.245 486.188 237.679 485.942 238.048C485.695 238.417 485.345 238.705 484.935 238.875C484.525 239.044 484.074 239.089 483.638 239.002C483.203 238.916 482.803 238.702 482.489 238.388C482.175 238.074 481.962 237.675 481.875 237.239C481.789 236.804 481.833 236.353 482.003 235.943C482.173 235.533 482.46 235.182 482.829 234.936C483.198 234.689 483.632 234.557 484.076 234.557C484.671 234.557 485.242 234.794 485.663 235.215C486.084 235.636 486.32 236.206 486.32 236.801Z" stroke="black" stroke-width="1.122" stroke-miterlimit="10"/>
<path d="M439.689 220.33C440.83 220.33 441.754 219.406 441.754 218.266C441.754 217.126 440.83 216.201 439.689 216.201C438.549 216.201 437.625 217.126 437.625 218.266C437.625 219.406 438.549 220.33 439.689 220.33Z" stroke="black" stroke-width="1.122" stroke-miterlimit="10"/>
<path d="M432.386 236.801C432.388 237.1 432.301 237.392 432.137 237.641C431.973 237.89 431.738 238.084 431.463 238.2C431.188 238.315 430.885 238.345 430.592 238.288C430.299 238.23 430.03 238.087 429.819 237.876C429.608 237.665 429.465 237.396 429.407 237.103C429.35 236.811 429.38 236.507 429.495 236.232C429.611 235.957 429.805 235.722 430.054 235.558C430.303 235.394 430.595 235.307 430.894 235.309C431.289 235.309 431.669 235.466 431.949 235.746C432.229 236.026 432.386 236.406 432.386 236.801Z" stroke="black" stroke-width="1.122" stroke-miterlimit="10"/>
<path d="M424.116 208.718C424.116 209.088 424.006 209.451 423.8 209.759C423.594 210.067 423.302 210.307 422.959 210.449C422.617 210.591 422.24 210.628 421.877 210.555C421.513 210.483 421.18 210.305 420.917 210.043C420.655 209.781 420.477 209.447 420.405 209.083C420.332 208.72 420.369 208.343 420.511 208.001C420.653 207.658 420.893 207.366 421.201 207.16C421.51 206.954 421.872 206.844 422.242 206.844C422.739 206.844 423.216 207.041 423.567 207.393C423.919 207.744 424.116 208.221 424.116 208.718Z" stroke="black" stroke-width="1.122" stroke-miterlimit="10"/>
<path d="M457.855 184.741C457.855 184.963 457.789 185.179 457.666 185.364C457.542 185.549 457.367 185.692 457.162 185.777C456.957 185.862 456.732 185.884 456.514 185.841C456.296 185.798 456.096 185.691 455.939 185.534C455.783 185.377 455.676 185.177 455.632 184.96C455.589 184.742 455.611 184.516 455.696 184.311C455.781 184.106 455.925 183.931 456.11 183.808C456.294 183.684 456.511 183.619 456.733 183.619C457.03 183.619 457.316 183.737 457.526 183.947C457.737 184.158 457.855 184.443 457.855 184.741Z" stroke="black" stroke-width="1.122" stroke-miterlimit="10"/>
</g>
<g opacity="0.3">
<path d="M122.107 418.88C115.375 432.916 118.629 453.807 122.208 462.2C122.208 462.2 130.915 485.437 152.581 490.25C174.247 495.063 196.945 481.151 206.022 452.001C215.099 422.851 188.215 399.267 167.414 396.81C146.612 394.353 128.862 404.855 122.107 418.88ZM171.554 441.477C171.397 449.016 166.157 453.819 159.93 451.653C158.213 451.019 156.7 449.931 155.554 448.504C154.408 447.077 153.671 445.366 153.422 443.552C153.032 441.583 153.39 439.539 154.428 437.821C155.466 436.102 157.108 434.833 159.032 434.262C163.184 432.938 171.666 433.926 171.554 441.477Z" stroke="black" stroke-width="1.122" stroke-miterlimit="10"/>
<path d="M166.427 398.74C159.616 401.545 157.451 402.016 152.424 401.432C147.398 400.849 141.788 403.082 139.723 405.359C137.283 408.065 134.585 410.526 131.667 412.709C129.698 414.24 128.114 416.21 127.041 418.462C125.967 420.714 125.435 423.185 125.485 425.679C125.749 429.642 125.285 433.619 124.116 437.415C122.792 442.666 121.367 442.498 122.568 447.681C123.768 452.865 125.855 462.828 125.855 462.828C125.855 462.828 128.93 473.633 133.339 475.944C137.748 478.256 146.41 478.188 149.799 480.017C153.187 481.846 151.313 485.627 159.695 484.763C168.076 483.899 173.024 481.622 176.929 482.082C180.833 482.542 188.698 476.954 189.349 471.277C190 465.6 191.593 461.796 196.418 456.96C201.242 452.124 203.217 447.984 200.446 440.86C197.674 433.735 198.976 425.567 199.032 421.965C199.088 418.363 193.938 413.09 189.125 411.093C184.311 409.096 184.637 403.362 179.846 400.995C178.32 400.243 177.097 399.458 175.908 398.818C174.506 398.314 173.079 397.884 171.633 397.528C169.833 397.57 168.06 397.982 166.427 398.74ZM162.152 432.456C163.644 435.149 168.951 432.882 172.452 436.944C175.953 441.005 171.678 440.456 171.554 441.522C171.537 443.15 171.237 444.764 170.668 446.29C170.351 447.703 169.692 449.017 168.749 450.116C166.73 452.046 165.495 453.347 164.811 456.141C164.127 458.935 161.568 456.141 158.932 454.021C156.295 451.9 156.34 451.563 153.176 450.834C150.012 450.105 150.236 445.089 150.236 445.089C150.236 445.089 149.417 442.845 150.988 438.694C152.559 434.543 154.556 435.867 155.678 432.388C156.8 428.91 160.671 429.763 162.152 432.456Z" stroke="black" stroke-width="1.122" stroke-miterlimit="10"/>
<path d="M180.934 422.066C180.535 422.399 180.046 422.607 179.53 422.662C179.013 422.717 178.491 422.618 178.031 422.377C177.571 422.136 177.193 421.763 176.944 421.307C176.696 420.85 176.588 420.331 176.635 419.813C176.683 419.296 176.882 418.804 177.209 418.4C177.536 417.996 177.975 417.698 178.472 417.544C178.968 417.39 179.499 417.387 179.997 417.535C180.495 417.682 180.938 417.975 181.27 418.375C181.491 418.639 181.658 418.944 181.761 419.273C181.864 419.601 181.901 419.947 181.869 420.29C181.838 420.633 181.739 420.967 181.579 421.272C181.418 421.576 181.199 421.846 180.934 422.066Z" stroke="black" stroke-width="1.122" stroke-miterlimit="10"/>
<path d="M165.013 412.899C164.9 412.994 164.77 413.066 164.63 413.111C164.489 413.156 164.341 413.172 164.194 413.16C164.047 413.147 163.904 413.106 163.773 413.038C163.642 412.97 163.526 412.877 163.431 412.765C163.239 412.535 163.146 412.24 163.172 411.942C163.199 411.644 163.342 411.369 163.571 411.177C163.8 410.985 164.096 410.892 164.394 410.918C164.692 410.945 164.967 411.088 165.159 411.317C165.253 411.431 165.325 411.562 165.368 411.702C165.412 411.843 165.428 411.992 165.414 412.139C165.401 412.285 165.358 412.428 165.289 412.559C165.221 412.689 165.127 412.805 165.013 412.899Z" stroke="black" stroke-width="1.122" stroke-miterlimit="10"/>
<path d="M179.52 410.094C179.263 410.31 178.948 410.445 178.615 410.482C178.281 410.518 177.944 410.455 177.647 410.3C177.349 410.145 177.104 409.905 176.943 409.611C176.782 409.316 176.712 408.981 176.742 408.646C176.772 408.312 176.901 407.995 177.111 407.733C177.322 407.472 177.606 407.28 177.926 407.18C178.247 407.08 178.589 407.078 178.911 407.173C179.233 407.269 179.519 407.457 179.733 407.716C180.019 408.06 180.157 408.503 180.117 408.949C180.077 409.395 179.862 409.806 179.52 410.094Z" stroke="black" stroke-width="1.122" stroke-miterlimit="10"/>
<path d="M153.265 419.283C152.81 419.663 152.253 419.899 151.664 419.962C151.074 420.025 150.48 419.912 149.955 419.637C149.43 419.362 148.999 418.937 148.715 418.417C148.432 417.896 148.309 417.304 148.362 416.714C148.416 416.123 148.643 415.562 149.015 415.101C149.387 414.64 149.888 414.3 150.454 414.124C151.019 413.947 151.625 413.942 152.193 414.11C152.761 414.277 153.267 414.61 153.647 415.065C154.155 415.675 154.401 416.462 154.329 417.253C154.258 418.044 153.875 418.775 153.265 419.283Z" stroke="black" stroke-width="1.122" stroke-miterlimit="10"/>
<path d="M182.886 439.917C182.572 440.178 182.187 440.34 181.781 440.383C181.375 440.425 180.965 440.346 180.604 440.156C180.243 439.965 179.946 439.672 179.751 439.313C179.557 438.954 179.473 438.545 179.511 438.139C179.548 437.732 179.706 437.346 179.963 437.029C180.22 436.712 180.566 436.478 180.956 436.357C181.346 436.236 181.763 436.234 182.155 436.35C182.546 436.467 182.894 436.697 183.155 437.011C183.505 437.432 183.673 437.975 183.622 438.52C183.572 439.065 183.307 439.567 182.886 439.917Z" stroke="black" stroke-width="1.122" stroke-miterlimit="10"/>
<path d="M193.119 432.86C192.863 433.073 192.55 433.207 192.219 433.242C191.888 433.278 191.554 433.215 191.259 433.06C190.963 432.906 190.721 432.668 190.561 432.375C190.402 432.083 190.332 431.75 190.362 431.418C190.392 431.086 190.52 430.771 190.729 430.512C190.938 430.253 191.22 430.062 191.538 429.962C191.855 429.863 192.196 429.861 192.515 429.955C192.835 430.049 193.119 430.236 193.332 430.492C193.474 430.661 193.582 430.857 193.649 431.068C193.715 431.278 193.739 431.5 193.719 431.72C193.7 431.941 193.636 432.155 193.533 432.35C193.43 432.546 193.289 432.719 193.119 432.86Z" stroke="black" stroke-width="1.122" stroke-miterlimit="10"/>
<path d="M191.065 452.618C190.695 452.927 190.242 453.119 189.763 453.17C189.284 453.221 188.8 453.129 188.373 452.905C187.946 452.681 187.596 452.336 187.366 451.912C187.135 451.489 187.036 451.007 187.08 450.527C187.124 450.047 187.31 449.591 187.613 449.216C187.917 448.842 188.324 448.566 188.785 448.424C189.245 448.281 189.737 448.278 190.199 448.416C190.661 448.553 191.072 448.825 191.379 449.196C191.584 449.441 191.739 449.724 191.834 450.029C191.929 450.334 191.963 450.654 191.934 450.972C191.905 451.29 191.813 451.599 191.664 451.882C191.515 452.164 191.311 452.415 191.065 452.618Z" stroke="black" stroke-width="1.122" stroke-miterlimit="10"/>
<path d="M177.163 468.068C176.85 468.331 176.465 468.494 176.058 468.538C175.652 468.581 175.241 468.503 174.879 468.313C174.517 468.123 174.219 467.829 174.024 467.47C173.829 467.11 173.745 466.701 173.783 466.294C173.821 465.886 173.979 465.5 174.237 465.182C174.495 464.865 174.842 464.631 175.233 464.511C175.624 464.391 176.042 464.39 176.433 464.508C176.825 464.626 177.173 464.857 177.433 465.173C177.605 465.381 177.735 465.621 177.815 465.878C177.895 466.136 177.924 466.408 177.899 466.677C177.874 466.945 177.796 467.207 177.67 467.446C177.543 467.684 177.371 467.896 177.163 468.068Z" stroke="black" stroke-width="1.122" stroke-miterlimit="10"/>
<path d="M152.76 471.883C152.419 472.166 152.001 472.342 151.56 472.387C151.119 472.433 150.674 472.347 150.281 472.14C149.889 471.933 149.567 471.615 149.355 471.225C149.144 470.835 149.053 470.391 149.093 469.949C149.134 469.508 149.305 469.088 149.584 468.743C149.863 468.398 150.238 468.144 150.662 468.012C151.085 467.881 151.539 467.878 151.964 468.003C152.389 468.129 152.768 468.378 153.052 468.719C153.241 468.946 153.383 469.207 153.471 469.489C153.558 469.771 153.59 470.067 153.562 470.361C153.535 470.655 153.451 470.941 153.313 471.202C153.175 471.463 152.987 471.694 152.76 471.883Z" stroke="black" stroke-width="1.122" stroke-miterlimit="10"/>
<path d="M135.538 456.5C135.026 456.925 134.399 457.188 133.737 457.257C133.075 457.326 132.408 457.197 131.819 456.886C131.231 456.576 130.747 456.098 130.43 455.513C130.113 454.928 129.977 454.262 130.038 453.6C130.099 452.937 130.355 452.308 130.774 451.791C131.192 451.274 131.755 450.892 132.39 450.695C133.026 450.497 133.705 450.492 134.343 450.681C134.982 450.869 135.549 451.243 135.975 451.754C136.259 452.094 136.472 452.487 136.604 452.91C136.735 453.333 136.782 453.777 136.741 454.218C136.701 454.659 136.573 455.087 136.367 455.479C136.16 455.871 135.879 456.218 135.538 456.5Z" stroke="black" stroke-width="1.122" stroke-miterlimit="10"/>
<path d="M142.101 432.501C141.846 432.713 141.533 432.845 141.202 432.879C140.872 432.914 140.538 432.85 140.244 432.695C139.95 432.541 139.708 432.302 139.549 432.011C139.39 431.719 139.321 431.386 139.35 431.055C139.38 430.724 139.507 430.409 139.716 430.15C139.924 429.891 140.204 429.7 140.521 429.6C140.838 429.5 141.178 429.497 141.497 429.589C141.816 429.682 142.101 429.868 142.315 430.122C142.598 430.467 142.734 430.91 142.694 431.355C142.654 431.8 142.441 432.211 142.101 432.501Z" stroke="black" stroke-width="1.122" stroke-miterlimit="10"/>
<path d="M146.186 450.554C145.959 450.742 145.681 450.858 145.388 450.889C145.095 450.919 144.799 450.862 144.539 450.725C144.278 450.587 144.064 450.376 143.923 450.117C143.782 449.858 143.721 449.563 143.748 449.27C143.774 448.976 143.887 448.697 144.072 448.468C144.257 448.238 144.506 448.069 144.787 447.981C145.068 447.892 145.369 447.889 145.652 447.972C145.935 448.054 146.187 448.219 146.376 448.444C146.629 448.75 146.751 449.143 146.716 449.538C146.68 449.933 146.489 450.298 146.186 450.554Z" stroke="black" stroke-width="1.122" stroke-miterlimit="10"/>
<path d="M139.745 417.399C139.546 417.564 139.301 417.667 139.043 417.695C138.785 417.722 138.525 417.672 138.295 417.551C138.065 417.43 137.877 417.244 137.753 417.016C137.629 416.788 137.575 416.529 137.599 416.27C137.622 416.012 137.722 415.766 137.885 415.564C138.048 415.362 138.267 415.213 138.515 415.136C138.762 415.059 139.027 415.056 139.276 415.13C139.525 415.203 139.747 415.348 139.913 415.547C140.024 415.68 140.108 415.833 140.159 415.998C140.211 416.162 140.229 416.336 140.213 416.508C140.198 416.68 140.148 416.847 140.068 417C139.988 417.153 139.878 417.288 139.745 417.399Z" stroke="black" stroke-width="1.122" stroke-miterlimit="10"/>
<path d="M172.497 403.744C172.383 403.838 172.252 403.909 172.111 403.953C171.97 403.997 171.822 404.013 171.675 403.999C171.528 403.986 171.385 403.943 171.255 403.874C171.124 403.805 171.009 403.712 170.915 403.598C170.773 403.427 170.685 403.218 170.662 402.998C170.639 402.777 170.682 402.555 170.786 402.359C170.889 402.162 171.049 402.001 171.244 401.895C171.438 401.79 171.66 401.744 171.881 401.765C172.102 401.785 172.312 401.87 172.484 402.01C172.657 402.149 172.784 402.337 172.85 402.549C172.916 402.761 172.917 402.987 172.854 403.2C172.791 403.413 172.667 403.602 172.497 403.744Z" stroke="black" stroke-width="1.122" stroke-miterlimit="10"/>
<path d="M169.714 424.097C169.572 424.214 169.398 424.287 169.215 424.305C169.032 424.324 168.848 424.288 168.685 424.202C168.522 424.116 168.389 423.983 168.301 423.821C168.214 423.659 168.176 423.475 168.194 423.292C168.211 423.108 168.282 422.934 168.398 422.792C168.514 422.649 168.67 422.543 168.846 422.489C169.022 422.435 169.21 422.434 169.386 422.486C169.563 422.539 169.72 422.642 169.837 422.784C169.917 422.878 169.977 422.986 170.014 423.104C170.051 423.221 170.064 423.344 170.053 423.467C170.041 423.589 170.005 423.708 169.947 423.816C169.889 423.924 169.81 424.02 169.714 424.097Z" stroke="black" stroke-width="1.122" stroke-miterlimit="10"/>
<path d="M177.164 453.482C176.964 453.648 176.72 453.751 176.462 453.778C176.204 453.805 175.944 453.755 175.714 453.634C175.484 453.514 175.296 453.328 175.172 453.1C175.048 452.872 174.994 452.612 175.018 452.354C175.041 452.095 175.141 451.85 175.304 451.648C175.467 451.446 175.686 451.297 175.934 451.219C176.181 451.142 176.446 451.14 176.695 451.213C176.944 451.286 177.166 451.432 177.332 451.631C177.553 451.9 177.659 452.244 177.628 452.591C177.596 452.937 177.43 453.257 177.164 453.482Z" stroke="black" stroke-width="1.122" stroke-miterlimit="10"/>
<path d="M168.827 476.528C168.487 476.812 168.07 476.99 167.629 477.037C167.188 477.084 166.742 477 166.349 476.795C165.956 476.589 165.633 476.272 165.42 475.883C165.207 475.493 165.114 475.05 165.153 474.608C165.192 474.166 165.362 473.745 165.64 473.4C165.918 473.054 166.292 472.798 166.715 472.665C167.138 472.532 167.592 472.527 168.017 472.652C168.443 472.776 168.823 473.024 169.108 473.364C169.297 473.59 169.441 473.851 169.529 474.133C169.618 474.414 169.65 474.71 169.624 475.004C169.598 475.298 169.514 475.584 169.377 475.845C169.241 476.107 169.054 476.339 168.827 476.528Z" stroke="black" stroke-width="1.122" stroke-miterlimit="10"/>
<path d="M154.522 430.436C154.209 430.698 153.825 430.862 153.419 430.906C153.013 430.95 152.603 430.873 152.241 430.684C151.879 430.495 151.581 430.203 151.385 429.845C151.189 429.487 151.103 429.078 151.139 428.671C151.176 428.264 151.332 427.877 151.588 427.559C151.844 427.241 152.189 427.006 152.578 426.884C152.968 426.762 153.385 426.758 153.777 426.873C154.169 426.988 154.518 427.217 154.78 427.53C155.131 427.95 155.301 428.492 155.252 429.037C155.204 429.581 154.941 430.085 154.522 430.436Z" stroke="black" stroke-width="1.122" stroke-miterlimit="10"/>
<path d="M134.281 435.115C134.054 435.303 133.777 435.419 133.484 435.45C133.191 435.48 132.895 435.423 132.634 435.286C132.374 435.149 132.159 434.937 132.019 434.678C131.878 434.419 131.817 434.125 131.843 433.831C131.87 433.538 131.983 433.259 132.168 433.029C132.353 432.8 132.601 432.63 132.883 432.542C133.164 432.454 133.465 432.45 133.748 432.533C134.03 432.615 134.283 432.78 134.472 433.006C134.599 433.156 134.694 433.331 134.753 433.518C134.812 433.706 134.834 433.904 134.816 434.1C134.798 434.296 134.742 434.487 134.65 434.661C134.558 434.835 134.433 434.989 134.281 435.115Z" stroke="black" stroke-width="1.122" stroke-miterlimit="10"/>
<path d="M150.584 410.846C150.3 411.084 149.951 411.232 149.583 411.272C149.214 411.312 148.842 411.242 148.513 411.07C148.184 410.899 147.914 410.634 147.736 410.308C147.559 409.983 147.481 409.612 147.514 409.243C147.547 408.874 147.689 408.522 147.922 408.234C148.154 407.945 148.467 407.732 148.821 407.621C149.175 407.511 149.554 407.507 149.91 407.612C150.265 407.717 150.582 407.925 150.819 408.209C151.137 408.59 151.291 409.082 151.247 409.576C151.203 410.071 150.964 410.527 150.584 410.846Z" stroke="black" stroke-width="1.122" stroke-miterlimit="10"/>
<path d="M190.572 421.337C190.459 421.431 190.328 421.502 190.187 421.546C190.046 421.589 189.898 421.605 189.751 421.591C189.604 421.578 189.461 421.536 189.33 421.467C189.2 421.398 189.084 421.304 188.99 421.191C188.896 421.077 188.825 420.946 188.781 420.806C188.737 420.665 188.722 420.517 188.735 420.37C188.749 420.223 188.791 420.08 188.86 419.949C188.929 419.819 189.022 419.703 189.136 419.609C189.365 419.418 189.66 419.327 189.957 419.354C190.254 419.381 190.527 419.526 190.718 419.755C190.908 419.984 191 420.279 190.973 420.576C190.945 420.873 190.801 421.146 190.572 421.337Z" stroke="black" stroke-width="1.122" stroke-miterlimit="10"/>
</g>
<g opacity="0.3">
<path d="M120.929 275.353C106.22 270.259 85.8332 275.914 77.9119 280.447C77.9119 280.447 55.8309 291.768 53.5757 313.838C51.3205 335.908 67.7241 356.867 97.7264 362.521C127.729 368.176 148.104 338.746 148.104 317.81C148.104 296.873 135.65 280.447 120.929 275.353ZM104.189 327.078C96.6717 327.784 91.3085 323.139 92.7447 316.699C93.1749 314.92 94.0807 313.29 95.3653 311.986C96.6499 310.682 98.265 309.751 100.038 309.294C101.954 308.679 104.03 308.805 105.858 309.646C107.686 310.487 109.132 311.983 109.911 313.838C111.706 317.776 111.707 326.359 104.189 327.078Z" stroke="black" stroke-width="1.122" stroke-miterlimit="10"/>
<path d="M146.051 317.058C142.472 310.618 141.765 308.463 141.765 303.459C141.765 298.455 138.904 293.081 136.39 291.297C133.427 289.178 130.673 286.781 128.166 284.139C126.418 282.358 124.278 281.01 121.918 280.201C119.557 279.393 117.04 279.147 114.567 279.482C110.666 280.204 106.665 280.204 102.764 279.482C97.3895 278.764 97.3895 277.339 92.3854 279.123C87.3813 280.907 77.7097 284.139 77.7097 284.139C77.7097 284.139 67.3312 288.425 65.5472 293.115C63.7632 297.805 64.8291 306.354 63.4042 309.945C61.9792 313.535 58.0298 312.088 59.825 320.323C61.6202 328.559 64.4701 333.204 64.4701 337.153C64.4701 341.102 70.9103 348.25 76.6438 348.25C82.3772 348.25 86.3042 349.372 91.6673 353.613C97.0305 357.854 101.328 359.346 108.127 355.767C114.926 352.188 123.151 352.502 126.786 352.121C130.421 351.739 135.021 346.039 136.446 341.024C137.871 336.009 143.605 335.661 145.422 330.645C145.995 329.041 146.634 327.739 147.128 326.483C147.468 325.032 147.73 323.564 147.913 322.085C147.651 320.297 147.017 318.585 146.051 317.058ZM112.065 316.699C109.563 318.483 112.424 323.498 108.845 327.425C105.266 331.352 105.266 327.077 104.189 327.077C102.569 327.239 100.934 327.125 99.353 326.741C97.884 326.604 96.4724 326.103 95.2465 325.282C93.1035 323.498 91.6673 322.421 88.8062 322.062C85.9451 321.703 88.4472 318.842 90.2312 315.981C92.0152 313.12 92.3854 313.12 92.7445 309.9C93.1035 306.68 98.1076 306.32 98.1076 306.32C98.1076 306.32 100.251 305.198 104.548 306.32C108.845 307.442 107.768 309.541 111.347 310.259C114.926 310.977 114.567 314.904 112.065 316.699Z" stroke="black" stroke-width="1.122" stroke-miterlimit="10"/>
<path d="M93.126 323.644C91.8387 322.769 90.3547 322.225 88.8063 322.062C87.9873 321.961 87.617 321.647 87.5385 321.198C85.474 322.432 83.3272 323.704 81.0982 325.013C75.3222 328.356 69.7475 332.035 64.4028 336.031C64.4469 336.381 64.4694 336.733 64.4701 337.086C64.7263 339.187 65.646 341.153 67.0956 342.696C68.1391 341.91 69.2723 341.069 70.5514 340.171C74.8262 337.119 83.9481 330.23 93.126 323.644Z" stroke="black" stroke-width="1.122" stroke-miterlimit="10"/>
<path d="M76.0494 308.037C87.9763 298.859 95.3142 292.901 107.241 287.841C112.851 285.496 118.943 283.241 124.262 281.233C122.368 280.211 120.289 279.578 118.147 279.37C116.655 279.875 115.14 280.414 113.659 280.963C101.317 285.552 90.714 289.681 74.6694 303.897C68.5433 309.316 63.4494 314.13 59.4326 318.023C59.5207 318.777 59.6481 319.526 59.8141 320.267C59.9487 320.873 60.0834 321.445 60.2292 322.017C65.0712 316.891 70.3661 312.212 76.0494 308.037Z" stroke="black" stroke-width="1.122" stroke-miterlimit="10"/>
<path d="M108.34 308.553C109.102 309.468 110.171 310.074 111.347 310.259C111.769 310.337 112.175 310.485 112.548 310.696L113.21 310.326C119.729 306.792 131.252 300.677 139.745 295.617C139.09 294.283 138.23 293.061 137.198 291.993C133.047 294.035 128.637 296.402 125.137 298.399C120.525 301.036 115.072 304.402 108.34 308.553Z" stroke="black" stroke-width="1.122" stroke-miterlimit="10"/>
<path d="M93.0252 346.567C100.879 339.229 114.579 336.929 131.555 328.222C138.287 324.744 143.627 322.073 147.386 320.031C147.04 318.999 146.593 318.003 146.051 317.058L145.658 316.34C134.865 320.211 115.667 328.94 103.112 335.56C96.1064 339.382 89.4989 343.892 83.3872 349.024C85.0765 349.51 86.692 350.223 88.1894 351.144L93.0252 346.567Z" stroke="black" stroke-width="1.122" stroke-miterlimit="10"/>
</g>
<g opacity="0.3">
<path d="M367.242 76.1983C352.532 71.1044 332.112 76.7705 324.258 81.2922C324.258 81.2922 302.177 92.6131 299.91 114.694C297.644 136.775 314.07 157.712 344.072 163.378C374.075 169.044 394.45 139.603 394.45 118.655C394.45 97.707 381.962 81.2922 367.242 76.1983ZM350.501 127.922C342.984 128.641 337.621 123.984 339.057 117.544C339.488 115.768 340.393 114.142 341.675 112.84C342.958 111.538 344.569 110.608 346.339 110.15C348.249 109.531 350.322 109.649 352.151 110.479C353.979 111.309 355.432 112.792 356.224 114.638C358.019 118.621 358.019 127.204 350.501 127.922Z" stroke="black" stroke-width="1.122" stroke-miterlimit="10"/>
<path d="M392.363 117.903C388.784 111.463 388.066 109.32 388.066 104.304C388.066 99.2891 385.205 93.9371 382.703 92.1419C379.735 90.0293 376.98 87.6318 374.479 84.9836C372.728 83.2062 370.588 81.861 368.228 81.0547C365.867 80.2485 363.352 80.0032 360.88 80.3385C356.975 81.0595 352.97 81.0595 349.065 80.3385C343.702 79.6204 343.702 78.1842 338.698 79.9794C333.694 81.7746 324.022 84.9836 324.022 84.9836C324.022 84.9836 313.644 89.2808 311.86 93.9596C310.076 98.6383 311.142 107.199 309.717 110.79C308.292 114.38 304.342 112.944 306.137 121.168C307.933 129.392 310.783 134.049 310.783 137.998C310.783 141.947 317.223 149.095 322.945 149.095C328.667 149.095 332.617 150.217 337.98 154.458C343.343 158.699 347.64 160.18 354.44 156.601C361.239 153.022 369.463 153.381 373.042 153.033C376.622 152.685 381.278 146.94 382.703 141.936C384.128 136.932 389.861 136.573 391.679 131.558C392.251 129.953 392.902 128.641 393.395 127.395C393.736 125.944 393.998 124.476 394.181 122.997C393.941 121.19 393.321 119.454 392.363 117.903ZM358.378 117.544C355.865 119.339 358.726 124.343 355.158 128.282C351.59 132.22 351.578 127.922 350.501 127.922C348.879 128.093 347.239 127.983 345.654 127.597C344.192 127.449 342.786 126.948 341.559 126.139C339.405 124.343 337.98 123.277 335.119 122.918C332.258 122.559 334.76 119.698 336.6 116.882C338.44 114.066 338.754 114.01 339.113 110.79C339.472 107.569 344.454 107.177 344.454 107.177C344.454 107.177 346.597 106.055 350.894 107.177C355.191 108.299 354.114 110.397 357.693 111.104C361.273 111.811 360.88 115.76 358.378 117.544Z" stroke="black" stroke-width="1.122" stroke-miterlimit="10"/>
<path d="M339.428 124.5C338.15 123.614 336.667 123.069 335.119 122.918C334.3 122.817 333.93 122.503 333.851 122.054L327.411 125.858C321.635 129.205 316.061 132.888 310.716 136.887C310.76 137.237 310.783 137.589 310.783 137.942C311.039 140.044 311.959 142.009 313.409 143.552C314.452 142.755 315.585 141.914 316.864 141.016C321.139 137.976 330.261 131.087 339.428 124.5Z" stroke="black" stroke-width="1.122" stroke-miterlimit="10"/>
<path d="M322.361 108.893C334.288 99.7154 341.626 93.7464 353.553 88.6974C359.107 86.3412 365.256 84.0972 370.574 82.0776C368.678 81.061 366.6 80.4281 364.459 80.2151C362.967 80.7312 361.452 81.2698 359.971 81.8083C347.629 86.3973 337.037 90.5263 320.981 104.753C314.866 110.172 309.761 114.986 305.756 118.879C305.844 119.633 305.971 120.382 306.137 121.123C306.261 121.729 306.407 122.313 306.541 122.885C311.381 117.752 316.676 113.069 322.361 108.893Z" stroke="black" stroke-width="1.122" stroke-miterlimit="10"/>
<path d="M354.653 109.41C355.415 110.323 356.484 110.925 357.66 111.104C358.08 111.187 358.485 111.335 358.86 111.541L359.522 111.182C366.041 107.648 377.564 101.533 386.058 96.4729C385.399 95.1383 384.54 93.9124 383.511 92.8376C379.359 94.8909 374.95 97.2583 371.438 99.2555C366.894 101.892 361.385 105.258 354.653 109.41Z" stroke="black" stroke-width="1.122" stroke-miterlimit="10"/>
<path d="M339.338 147.423C347.136 140.074 360.891 137.785 377.867 129.067C384.599 125.6 389.94 122.93 393.699 120.876C393.349 119.845 392.902 118.85 392.363 117.903L391.971 117.196C381.177 121.067 361.968 129.807 349.424 136.405C342.417 140.224 335.81 144.735 329.7 149.869C331.384 150.364 332.995 151.081 334.491 152.001C336.017 150.557 337.632 149.031 339.338 147.423Z" stroke="black" stroke-width="1.122" stroke-miterlimit="10"/>
</g>
<g opacity="0.3">
<path d="M165.988 247.932C165.988 248.535 165.809 249.125 165.474 249.627C165.139 250.129 164.662 250.52 164.104 250.751C163.547 250.982 162.933 251.043 162.341 250.925C161.749 250.807 161.205 250.516 160.779 250.09C160.352 249.663 160.061 249.119 159.943 248.527C159.826 247.935 159.886 247.321 160.117 246.764C160.348 246.206 160.739 245.729 161.241 245.394C161.743 245.059 162.333 244.88 162.937 244.88C163.746 244.88 164.522 245.201 165.095 245.774C165.667 246.346 165.988 247.122 165.988 247.932Z" stroke="black" stroke-width="1.122" stroke-linecap="round" stroke-linejoin="round"/>
<path d="M84.6096 227.332C84.6095 227.984 84.4167 228.622 84.0554 229.165C83.6941 229.708 83.1805 230.132 82.5789 230.384C81.9774 230.636 81.3148 230.705 80.6743 230.582C80.0338 230.458 79.444 230.149 78.9789 229.691C78.5139 229.234 78.1943 228.649 78.0603 228.011C77.9264 227.373 77.984 226.709 78.2259 226.103C78.4678 225.498 78.8833 224.977 79.4202 224.607C79.9571 224.236 80.5914 224.033 81.2436 224.022C81.6829 224.014 82.1194 224.094 82.5274 224.257C82.9355 224.42 83.307 224.663 83.6204 224.971C83.9337 225.279 84.1825 225.647 84.3523 226.052C84.5222 226.457 84.6096 226.892 84.6096 227.332Z" stroke="black" stroke-width="1.122" stroke-linecap="round" stroke-linejoin="round"/>
<path d="M163.7 294.214C164.964 294.214 165.988 293.189 165.988 291.925C165.988 290.661 164.964 289.636 163.7 289.636C162.435 289.636 161.411 290.661 161.411 291.925C161.411 293.189 162.435 294.214 163.7 294.214Z" stroke="black" stroke-width="1.122" stroke-linecap="round" stroke-linejoin="round"/>
<path d="M93.7658 394.656C93.768 395.513 93.5156 396.352 93.0406 397.066C92.5656 397.78 91.8893 398.337 91.0975 398.666C90.3056 398.995 89.4339 399.082 88.5927 398.915C87.7516 398.748 86.9789 398.336 86.3725 397.729C85.7661 397.123 85.3534 396.35 85.1867 395.509C85.0199 394.668 85.1066 393.796 85.4358 393.004C85.765 392.212 86.3219 391.536 87.0358 391.061C87.7497 390.586 88.5886 390.334 89.4461 390.336C90.5918 390.336 91.6905 390.791 92.5006 391.601C93.3107 392.411 93.7658 393.51 93.7658 394.656Z" stroke="black" stroke-width="1.122" stroke-linecap="round" stroke-linejoin="round"/>
<path d="M162.937 366.426C164.622 366.426 165.988 365.06 165.988 363.374C165.988 361.689 164.622 360.322 162.937 360.322C161.251 360.322 159.885 361.689 159.885 363.374C159.885 365.06 161.251 366.426 162.937 366.426Z" stroke="black" stroke-width="1.122" stroke-linecap="round" stroke-linejoin="round"/>
<path d="M438.074 292.688C438.074 293.292 437.895 293.882 437.56 294.384C437.224 294.886 436.748 295.277 436.19 295.508C435.632 295.739 435.019 295.799 434.427 295.681C433.835 295.564 433.291 295.273 432.864 294.846C432.437 294.419 432.147 293.876 432.029 293.284C431.911 292.692 431.972 292.078 432.203 291.52C432.434 290.963 432.825 290.486 433.327 290.151C433.828 289.815 434.418 289.636 435.022 289.636C435.831 289.636 436.608 289.958 437.18 290.53C437.752 291.103 438.074 291.879 438.074 292.688Z" stroke="black" stroke-width="1.122" stroke-linecap="round" stroke-linejoin="round"/>
<path d="M405.525 226.311C405.527 227.268 405.245 228.205 404.714 229.002C404.184 229.799 403.429 230.42 402.545 230.787C401.661 231.155 400.687 231.252 399.748 231.065C398.809 230.879 397.946 230.418 397.269 229.741C396.592 229.064 396.132 228.202 395.945 227.263C395.759 226.323 395.856 225.35 396.223 224.466C396.591 223.582 397.212 222.827 398.009 222.296C398.806 221.766 399.743 221.484 400.7 221.486C401.98 221.486 403.207 221.994 404.112 222.899C405.016 223.804 405.525 225.031 405.525 226.311Z" stroke="black" stroke-width="1.122" stroke-linecap="round" stroke-linejoin="round"/>
<path d="M424.856 153.325C426.82 153.325 428.413 151.732 428.413 149.768C428.413 147.803 426.82 146.211 424.856 146.211C422.892 146.211 421.299 147.803 421.299 149.768C421.299 151.732 422.892 153.325 424.856 153.325Z" stroke="black" stroke-width="1.122" stroke-linecap="round" stroke-linejoin="round"/>
<path d="M489.955 150.789C492.204 150.789 494.028 148.965 494.028 146.716C494.028 144.467 492.204 142.643 489.955 142.643C487.705 142.643 485.882 144.467 485.882 146.716C485.882 148.965 487.705 150.789 489.955 150.789Z" stroke="black" stroke-width="1.122" stroke-linecap="round" stroke-linejoin="round"/>
<path d="M449.271 106.032C449.271 106.536 449.122 107.028 448.842 107.447C448.562 107.866 448.164 108.193 447.699 108.385C447.233 108.578 446.721 108.629 446.227 108.53C445.733 108.432 445.279 108.189 444.923 107.833C444.567 107.477 444.324 107.023 444.226 106.529C444.128 106.035 444.178 105.523 444.371 105.058C444.564 104.592 444.89 104.194 445.309 103.915C445.728 103.635 446.22 103.485 446.724 103.485C447.4 103.485 448.047 103.754 448.525 104.231C449.003 104.709 449.271 105.357 449.271 106.032Z" stroke="black" stroke-width="1.122" stroke-linecap="round" stroke-linejoin="round"/>
<path d="M228.54 89.2471C230.504 89.2471 232.097 87.6547 232.097 85.6904C232.097 83.7261 230.504 82.1337 228.54 82.1337C226.576 82.1337 224.983 83.7261 224.983 85.6904C224.983 87.6547 226.576 89.2471 228.54 89.2471Z" stroke="black" stroke-width="1.122" stroke-linecap="round" stroke-linejoin="round"/>
<path d="M123.42 100.86C125.105 100.86 126.472 99.4936 126.472 97.8081C126.472 96.1226 125.105 94.7562 123.42 94.7562C121.735 94.7562 120.368 96.1226 120.368 97.8081C120.368 99.4936 121.735 100.86 123.42 100.86Z" stroke="black" stroke-width="1.122" stroke-linecap="round" stroke-linejoin="round"/>
<path d="M482.325 461.785C482.327 462.842 482.016 463.875 481.43 464.755C480.845 465.635 480.012 466.321 479.036 466.727C478.06 467.133 476.986 467.24 475.949 467.035C474.912 466.831 473.96 466.323 473.212 465.576C472.464 464.83 471.954 463.878 471.747 462.842C471.54 461.806 471.645 460.731 472.049 459.755C472.453 458.778 473.137 457.944 474.016 457.356C474.894 456.769 475.927 456.455 476.984 456.455C478.399 456.455 479.756 457.016 480.757 458.016C481.758 459.015 482.322 460.37 482.325 461.785Z" stroke="black" stroke-width="1.122" stroke-linecap="round" stroke-linejoin="round"/>
<path d="M426.64 453.908C427.905 453.908 428.929 452.884 428.929 451.62C428.929 450.355 427.905 449.331 426.64 449.331C425.376 449.331 424.352 450.355 424.352 451.62C424.352 452.884 425.376 453.908 426.64 453.908Z" stroke="black" stroke-width="1.122" stroke-linecap="round" stroke-linejoin="round"/>
<path d="M79.6619 475.922C80.926 475.922 81.9508 474.897 81.9508 473.633C81.9508 472.369 80.926 471.344 79.6619 471.344C78.3978 471.344 77.373 472.369 77.373 473.633C77.373 474.897 78.3978 475.922 79.6619 475.922Z" stroke="black" stroke-width="1.122" stroke-linecap="round" stroke-linejoin="round"/>
<path d="M504.194 329.299C504.194 329.903 504.015 330.493 503.679 330.995C503.344 331.496 502.867 331.888 502.31 332.119C501.752 332.35 501.138 332.41 500.546 332.292C499.954 332.175 499.411 331.884 498.984 331.457C498.557 331.03 498.266 330.486 498.148 329.894C498.031 329.302 498.091 328.689 498.322 328.131C498.553 327.574 498.944 327.097 499.446 326.762C499.948 326.426 500.538 326.247 501.142 326.247C501.951 326.247 502.727 326.569 503.3 327.141C503.872 327.713 504.194 328.49 504.194 329.299Z" stroke="black" stroke-width="1.122" stroke-linecap="round" stroke-linejoin="round"/>
<path d="M384.677 265.738C386.927 265.738 388.75 263.914 388.75 261.665C388.75 259.416 386.927 257.592 384.677 257.592C382.428 257.592 380.604 259.416 380.604 261.665C380.604 263.914 382.428 265.738 384.677 265.738Z" stroke="black" stroke-width="1.122" stroke-linecap="round" stroke-linejoin="round"/>
</g>
<path d="M50.4902 503.893H503.778" stroke="#263238" stroke-width="1.122" stroke-linecap="round" stroke-linejoin="round"/>
<path d="M270.402 128.023C270.402 128.023 256.411 117.353 246.84 122.492C237.27 127.631 245 134.632 245 134.632C245 134.632 237.651 135.361 238.751 137.572C239.359 138.748 239.851 139.98 240.221 141.252C240.221 141.252 221.831 144.618 222.571 149.712C223.312 154.806 224.412 155.221 224.412 155.221C224.412 155.221 214.482 158.172 215.952 162.211C217.421 166.25 224.771 167.361 224.771 167.361C224.771 167.361 208.221 177.29 205.697 189.43C203.172 201.57 209.736 198.99 209.736 198.99C209.736 198.99 199.447 207.82 203.857 212.6C208.266 217.379 213.046 215.966 213.046 215.966C213.046 215.966 207.166 229.205 209.736 232.145C212.305 235.085 214.886 234.726 214.886 234.726C214.886 234.726 195.812 246.495 203.857 254.922C211.901 263.348 218.566 254.922 218.566 254.922C218.566 254.922 211.946 269.261 219.306 271.101C226.667 272.941 228.125 271.83 228.125 271.83C228.125 271.83 220.036 279.931 234.386 282.13C248.737 284.329 249.825 282.13 249.825 282.13C249.825 282.13 246.156 288.75 252.405 291.701C258.655 294.652 263.064 287.28 263.064 287.28C263.064 287.28 264.905 291.33 273.364 290.96C281.824 290.59 283.664 286.551 283.664 286.551C283.664 286.551 288.444 295.74 294.335 292.43C300.225 289.12 301.313 286.181 301.313 286.181C302.516 287.335 303.985 288.174 305.591 288.622C307.196 289.07 308.887 289.114 310.514 288.75L316.393 287.628C316.393 287.628 323.013 291.678 328.533 289.098C334.053 286.517 332.954 282.478 332.954 282.478C332.954 282.478 339.203 286.528 343.613 284.318C348.022 282.108 348.022 279.538 348.022 279.538C348.022 279.538 353.913 282.108 356.482 277.698C357.238 276.497 357.669 275.12 357.734 273.702C357.799 272.284 357.495 270.874 356.852 269.609C356.852 269.609 363.842 269.979 364.213 268.139C364.583 266.299 360.162 261.878 360.162 261.878C360.162 261.878 369.363 270.338 368.252 257.839C367.663 250.507 364.984 243.498 360.533 237.643C360.533 237.643 366.053 239.887 366.412 236.521C366.696 234.77 366.442 232.974 365.683 231.371C365.683 231.371 372.673 232.841 375.242 222.911C375.995 220.135 375.868 217.194 374.879 214.493C373.891 211.793 372.089 209.465 369.722 207.831C369.722 207.831 378.182 203.052 377.082 199.371C375.983 195.691 374.513 194.592 374.513 194.592C374.513 194.592 380.022 190.911 375.983 188.342C372.982 186.582 369.765 185.22 366.412 184.292C366.412 184.292 376.712 183.921 373.402 173.621C370.092 163.322 359.063 154.873 356.482 153.762C353.902 152.651 366.782 149.723 357.952 147.513C349.122 145.302 346.552 145.269 346.552 145.269C346.552 145.269 354.283 138.649 348.022 135.709C341.762 132.769 338.844 134.273 338.844 134.273C338.844 134.273 341.088 128.753 334.065 128.382C327.041 128.012 323.024 130.963 323.024 130.963C323.024 130.963 325.975 117.723 319.714 114.784C313.453 111.844 303.12 124.736 303.12 124.736C303.12 124.736 297.97 113.695 294.66 117.005C291.35 120.315 291.35 122.896 291.35 122.896C291.35 122.896 278.11 109.656 273.331 116.646C268.551 123.636 270.402 128.023 270.402 128.023Z" fill="#263238" stroke="#263238" stroke-width="1.122" stroke-linecap="round" stroke-linejoin="round"/>
<path d="M385.598 384.67C385.598 384.67 397.199 424.781 400.184 431.794C403.168 438.806 402.046 445.628 388.964 449.364C375.881 453.1 367.264 444.506 364.65 433.656C362.036 422.806 349.694 389.528 349.694 389.528L385.598 384.67Z" fill="#977D6E" stroke="#263238" stroke-width="1.122" stroke-linecap="round" stroke-linejoin="round"/>
<path d="M385.598 384.67L349.694 389.528C349.694 389.528 351.41 394.162 353.699 400.546L389.334 397.505C387.191 390.201 385.598 384.67 385.598 384.67Z" fill="#263238" stroke="#263238" stroke-width="1.122" stroke-linecap="round" stroke-linejoin="round"/>
<path d="M195.598 384.67C195.598 384.67 174.09 442.453 175.874 449.465C177.658 456.478 190.37 464.702 204.574 461.706C218.779 458.71 223.278 434.038 224.03 431.794C224.782 429.55 235.99 388.406 235.99 388.406L195.598 384.67Z" fill="#977D6E" stroke="#263238" stroke-width="1.122" stroke-linecap="round" stroke-linejoin="round"/>
<path d="M235.99 388.406L195.598 384.67C195.598 384.67 193.265 390.93 190.202 399.592L229.416 412.462C232.591 400.883 235.99 388.406 235.99 388.406Z" fill="#263238" stroke="#263238" stroke-width="1.122" stroke-linecap="round" stroke-linejoin="round"/>
<path d="M270.402 253.07C270.402 253.07 270.772 279.179 268.158 287.269C265.544 295.358 256.781 298.646 256.781 298.646C256.781 298.646 220.002 290.556 212.653 296.402C205.304 302.248 199.043 329.871 197.932 334.281C196.821 338.69 178.073 390.919 178.073 390.919C178.073 390.919 193.523 394.599 204.552 397.539C215.581 400.479 229.236 402.689 229.236 402.689L234.016 447.188L215.256 503.826H367.848L343.568 440.568L348.718 395.688L400.554 388.047C400.554 388.047 378.114 330.298 371.865 316.329C365.615 302.36 360.162 293.159 349.099 293.518C338.036 293.877 328.903 298.309 324.09 299.779C321.61 300.649 318.984 301.03 316.359 300.901C314.042 298.812 312.19 296.26 310.924 293.408C309.658 290.557 309.006 287.471 309.01 284.352C309.01 273.681 308.64 264.156 308.64 264.156C301.856 265.869 294.738 265.745 288.018 263.797C281.298 261.849 275.218 258.147 270.402 253.07Z" fill="#92E3A9" stroke="#263238" stroke-width="1.122" stroke-linecap="round" stroke-linejoin="round"/>
<path d="M336.6 376.064C336.6 376.064 347.82 352.502 360.723 337.916" stroke="#263238" stroke-width="1.122" stroke-linecap="round" stroke-linejoin="round"/>
<path d="M346.698 350.258C346.698 350.258 353.991 337.355 357.357 332.867" stroke="#263238" stroke-width="1.122" stroke-linecap="round" stroke-linejoin="round"/>
<path d="M221.595 341.282C221.595 341.282 236.742 368.21 238.425 376.625" stroke="#263238" stroke-width="1.122" stroke-linecap="round" stroke-linejoin="round"/>
<path d="M226.083 362.6C226.083 362.6 235.059 377.747 237.864 385.601" stroke="#263238" stroke-width="1.122" stroke-linecap="round" stroke-linejoin="round"/>
<path d="M326.131 424.748C317.694 433.477 304.926 446.357 296.825 452.932" stroke="#263238" stroke-width="1.122" stroke-linecap="round" stroke-linejoin="round"/>
<path d="M334.693 415.76C334.693 415.76 332.987 417.578 330.205 420.461" stroke="#263238" stroke-width="1.122" stroke-linecap="round" stroke-linejoin="round"/>
<path d="M278.951 457.521L275.081 459.945" stroke="#263238" stroke-width="1.122" stroke-linecap="round" stroke-linejoin="round"/>
<path d="M306.991 436.798C299.41 443.393 291.375 449.448 282.946 454.918" stroke="#263238" stroke-width="1.122" stroke-linecap="round" stroke-linejoin="round"/>
<path d="M295.086 343.526C321.038 340.429 352.308 321.826 369.217 310.595C363.944 299.903 358.536 293.204 349.1 293.518C338.059 293.889 328.904 298.309 324.09 299.779C321.61 300.649 318.985 301.03 316.36 300.901C314.042 298.812 312.19 296.26 310.924 293.408C309.658 290.557 309.006 287.471 309.01 284.352C309.01 273.681 308.64 264.156 308.64 264.156C301.856 265.869 294.739 265.745 288.018 263.797C281.298 261.849 275.218 258.147 270.402 253.07C270.402 253.07 270.773 279.179 268.158 287.269C265.544 295.358 256.781 298.646 256.781 298.646C256.781 298.646 220.002 290.556 212.653 296.402C210.331 298.253 208.165 302.259 206.157 307.005C223.278 319.324 265.69 347.038 295.086 343.526Z" fill="#977D6E" stroke="#263238" stroke-width="1.122" stroke-linecap="round" stroke-linejoin="round"/>
<path d="M268.921 258.422C268.921 258.422 286.75 280.862 293.123 281.771C299.496 282.68 310.525 266.905 310.525 266.905C310.525 266.905 285.482 273.704 268.921 258.422Z" fill="#263238" stroke="#263238" stroke-width="1.122" stroke-linecap="round" stroke-linejoin="round"/>
<path d="M251.261 240.56C251.261 240.56 252.001 244.61 254.627 246.08C257.252 247.55 261.606 246.08 261.606 246.08C261.606 246.08 267.866 258.95 276.685 265.154C285.504 271.359 291.395 276.565 300.965 273.984C310.536 271.404 318.985 258.534 323.405 251.915C326.719 246.867 329.088 241.26 330.395 235.365C331.136 232.055 331.136 214.406 329.273 203.366C327.411 192.325 316.763 177.627 310.143 172.477C303.524 167.327 296.904 165.117 285.874 171.355C274.845 177.593 264.904 187.905 258.655 204.824C252.405 221.744 251.261 230.63 251.261 240.56Z" fill="#977D6E" stroke="#263238" stroke-width="1.122" stroke-linecap="round" stroke-linejoin="round"/>
<path d="M287.681 213.71C287.681 213.71 282.16 208.931 275.17 214.081" stroke="#263238" stroke-width="2.244" stroke-linecap="round" stroke-linejoin="round"/>
<path d="M307.17 211.511C307.17 211.511 314.16 207.831 318.57 211.87" stroke="#263238" stroke-width="2.244" stroke-linecap="round" stroke-linejoin="round"/>
<path d="M289.151 196.791C289.151 196.791 279.58 192.056 271.524 203.052" stroke="#263238" stroke-width="2.244" stroke-linecap="round" stroke-linejoin="round"/>
<path d="M304.959 196.062C304.959 196.062 314.16 190.171 318.94 200.101" stroke="#263238" stroke-width="2.244" stroke-linecap="round" stroke-linejoin="round"/>
<path d="M307.17 216.661C307.17 216.661 307.899 221.441 301.65 224.01" stroke="#263238" stroke-width="1.122" stroke-linecap="round" stroke-linejoin="round"/>
<path d="M285.1 225.48C285.1 225.48 285.1 235.04 280.32 239.09" stroke="#263238" stroke-width="1.122" stroke-linecap="round" stroke-linejoin="round"/>
<path d="M285.1 231.326C289.113 233.368 293.483 234.614 297.969 234.995C305.7 235.735 309.739 233.166 312.32 229.856" stroke="#263238" stroke-width="1.122" stroke-linecap="round" stroke-linejoin="round"/>
<path d="M302.76 172.892C302.76 172.892 315.26 175.462 321.834 194.592C326.621 208.576 329.224 223.214 329.554 237.991C329.554 237.991 339.125 233.57 336.914 212.981C334.704 192.393 329.554 181.352 321.464 174.362C313.375 167.372 306.026 165.532 303.815 166.272C301.605 167.013 296.141 167.002 302.76 172.892Z" fill="#DD5151" stroke="#263238" stroke-width="1.122" stroke-linecap="round" stroke-linejoin="round"/>
<path d="M304.96 173.262C304.96 173.262 294.11 171.826 285.47 176.931C273.386 184.078 264.007 199.214 259.597 212.084C255.188 224.953 251.261 240.56 251.261 240.56C251.261 240.56 249.432 234.31 248.691 220.364C247.951 206.417 255.827 188.073 266.497 178.502C277.168 168.931 289.151 163.366 296.87 163.366C304.589 163.366 310.85 168.112 304.96 173.262Z" fill="#E74646" stroke="#263238" stroke-width="1.122" stroke-linecap="round" stroke-linejoin="round"/>
<path d="M251.002 238.181C251.002 238.181 258.093 190.193 272.32 174.328" stroke="#263238" stroke-width="1.122" stroke-linecap="round" stroke-linejoin="round"/>
<path d="M326.502 181.004C326.502 181.004 335.142 212.746 329.566 237.991" stroke="#263238" stroke-width="1.122" stroke-linecap="round" stroke-linejoin="round"/>
<path d="M316.572 288.548C316.04 289.365 315.345 290.064 314.53 290.601C310.48 293.182 310.48 288.761 310.48 288.761C309.995 290.169 309.111 291.406 307.936 292.32C306.76 293.235 305.344 293.788 303.86 293.911C298.71 294.281 299.451 290.601 299.451 290.601C299.092 291.983 298.28 293.205 297.145 294.072C296.01 294.938 294.618 295.399 293.19 295.381C288.04 295.381 289.88 292.812 289.88 292.812C289.88 292.812 284.371 294.281 281.79 290.971C281.259 290.353 280.881 289.619 280.686 288.828C280.491 288.036 280.485 287.21 280.668 286.416C279.973 287.359 278.66 288.133 276.248 286.921C272.882 285.249 274.004 281.042 274.722 279.067C269.186 282.242 264.737 287.015 261.959 292.76C259.18 298.505 258.2 304.956 259.147 311.267C260.094 317.578 262.925 323.456 267.268 328.133C271.611 332.809 277.265 336.065 283.489 337.475C289.714 338.885 296.219 338.383 302.153 336.035C308.087 333.688 313.175 329.603 316.75 324.316C320.325 319.029 322.22 312.787 322.189 306.405C322.157 300.023 320.2 293.799 316.572 288.548ZM290.598 313.479C289.263 313.497 287.953 313.117 286.834 312.388C285.715 311.659 284.838 310.614 284.315 309.386C283.792 308.157 283.646 306.801 283.895 305.489C284.145 304.178 284.779 302.97 285.716 302.019C286.654 301.069 287.853 300.419 289.162 300.151C290.47 299.884 291.828 300.012 293.064 300.519C294.299 301.026 295.356 301.889 296.099 302.997C296.843 304.106 297.24 305.411 297.24 306.747C297.241 308.517 296.544 310.216 295.301 311.476C294.057 312.735 292.368 313.455 290.598 313.479Z" fill="white" stroke="#263238" stroke-width="1.122" stroke-linecap="round" stroke-linejoin="round"/>
<path d="M314.53 290.579C310.48 293.159 310.48 288.739 310.48 288.739C309.995 290.147 309.111 291.383 307.935 292.298C306.76 293.212 305.344 293.765 303.86 293.889C298.71 294.259 299.45 290.579 299.45 290.579C299.092 291.961 298.28 293.183 297.145 294.049C296.01 294.916 294.617 295.377 293.19 295.358C288.04 295.358 289.88 292.789 289.88 292.789C289.88 292.789 284.371 294.259 281.79 290.949C281.259 290.331 280.88 289.597 280.685 288.805C280.491 288.014 280.485 287.188 280.668 286.394C279.972 287.336 278.66 288.11 276.247 286.899C272.881 285.227 274.003 281.019 274.721 279.045C271.674 280.844 268.948 283.138 266.654 285.833C267.238 286.45 267.35 288.077 265.398 292.34C261.56 300.666 258.666 308.677 263.154 311.874C267.642 315.072 271.804 319.246 271.804 326.932C271.837 329.278 272.421 331.584 273.51 333.664C277.431 336.224 281.88 337.866 286.525 338.466C291.013 336.222 295.905 334.045 301.268 335.919C301.728 336.076 302.166 336.222 302.603 336.334C306.571 334.678 310.159 332.231 313.15 329.142C314.115 322.533 310.816 315.24 317.29 310.618C319.029 309.372 320.656 308.217 322.193 307.027V306.736C322.215 300.23 320.259 293.871 316.583 288.503C316.049 289.329 315.35 290.036 314.53 290.579ZM290.598 313.479C289.263 313.497 287.952 313.117 286.833 312.388C285.715 311.659 284.838 310.614 284.315 309.386C283.791 308.157 283.645 306.801 283.895 305.489C284.144 304.178 284.778 302.97 285.716 302.019C286.654 301.069 287.853 300.419 289.161 300.151C290.47 299.884 291.828 300.012 293.063 300.519C294.298 301.026 295.355 301.889 296.099 302.997C296.843 304.106 297.24 305.411 297.24 306.747C297.24 308.517 296.543 310.216 295.3 311.476C294.057 312.735 292.368 313.455 290.598 313.479Z" fill="#F2C5EE" stroke="#263238" stroke-width="1.122" stroke-linecap="round" stroke-linejoin="round"/>
<path d="M309.672 330.365C309.509 330.172 309.304 330.019 309.073 329.918C308.841 329.816 308.589 329.77 308.337 329.781C308.651 328.659 309.089 327.257 309.459 325.955C310.132 323.812 310.895 321.389 311.591 318.763C311.984 317.316 312.567 315.117 310.929 314.275C309.291 313.434 307.787 314.96 304.657 318.483C302.671 320.727 298.116 325.832 296.365 325.709C296.107 324.261 298.71 319.201 300.449 315.824C303.041 310.763 305.723 305.546 305.88 301.776C305.947 300.239 305.453 299.297 304.41 298.971C302.592 298.399 301.358 299.959 297.24 306.466C297.24 306.578 297.24 306.691 297.24 306.792C297.243 308.128 296.847 309.435 296.104 310.546C295.36 311.657 294.303 312.522 293.067 313.03C289.095 319.167 284.012 326.382 281.297 326.617H280.915C280.715 326.62 280.515 326.598 280.321 326.55C279.636 325.215 283.227 318.898 285.157 315.498C285.762 314.376 286.357 313.378 286.907 312.368C285.994 311.746 285.249 310.909 284.736 309.93C284.223 308.952 283.959 307.862 283.967 306.758C283.967 306.5 283.967 306.242 283.967 305.984C283.07 306.679 281.992 307.555 280.691 308.643C278.356 310.707 275.861 312.583 273.23 314.253C274.852 311.375 276.62 308.582 278.525 305.883C280.838 302.634 282.944 299.242 284.831 295.729C285.325 294.923 285.527 293.973 285.403 293.036C284.458 292.892 283.56 292.531 282.778 291.981C281.499 292.688 279.591 294.876 275.519 299.555C273.432 301.933 270.548 305.232 268.787 306.994C269.791 304.238 270.984 301.553 272.354 298.96C274.508 294.601 277.212 290.536 280.399 286.865C280.499 286.752 280.578 286.623 280.635 286.483C279.928 287.415 278.626 288.144 276.248 286.955L276.046 286.831C273.455 290.141 271.199 293.7 269.314 297.457C264.68 306.713 264.433 309.148 265.589 310.595C265.918 310.986 266.357 311.269 266.85 311.407C267.342 311.546 267.864 311.532 268.349 311.369C269.471 311.089 271.042 309.641 274.621 305.647C270.032 312.491 268.562 315.218 269.695 317.069C269.977 317.491 270.379 317.819 270.849 318.009C271.32 318.199 271.836 318.243 272.332 318.135C274.8 317.798 278.245 315.083 282.834 311.291L284.281 310.102C283.642 311.291 282.924 312.559 282.183 313.871C278.077 321.108 275.709 325.697 277.437 328.457C277.964 329.299 279.109 330.253 281.532 330.051C286.301 329.647 291.956 321.198 298.856 310.202C299.563 309.08 300.326 307.857 301.1 306.713C300.102 309.137 298.71 311.841 297.42 314.365C294.054 320.962 292.169 324.822 293.302 327.302C293.499 327.737 293.794 328.12 294.164 328.422C294.533 328.724 294.968 328.936 295.434 329.041C298.744 329.871 302.536 325.978 307.136 320.794L307.709 320.155C307.204 321.905 306.688 323.521 306.216 325.058C304.444 330.724 303.782 332.844 305.476 333.955C305.805 334.185 306.197 334.306 306.598 334.303H306.946C307.963 333.669 308.948 332.984 309.897 332.25C310.05 331.949 310.111 331.609 310.071 331.273C310.031 330.938 309.892 330.621 309.672 330.365Z" fill="#F5E236" stroke="#263238" stroke-width="1.122" stroke-linecap="round" stroke-linejoin="round"/>
<path d="M245.146 341.461C246.968 339.613 248.967 337.948 251.115 336.491C253.359 335.257 257.847 330.039 259.564 326.808C261.28 323.577 262.537 320.592 263.782 323.33C264.496 324.907 264.823 326.631 264.737 328.36C264.651 330.089 264.155 331.772 263.289 333.271C261.303 336.491 255.581 341.708 254.313 343.201C253.045 344.693 250.576 350.909 250.576 350.909C249.473 350.956 248.375 350.731 247.379 350.253C246.383 349.776 245.52 349.061 244.865 348.171C242.913 345.198 242.913 343.705 245.146 341.461Z" fill="#C2C2C2" stroke="#263238" stroke-width="1.122" stroke-linecap="round" stroke-linejoin="round"/>
<path d="M259.721 317.428C259.721 317.428 243.912 324.048 242.072 327.358C240.231 330.668 232.882 344.278 232.512 348.328C232.142 352.379 238.762 354.207 244.641 370.768C245.606 373.472 242.397 375.548 241.331 377.388C240.265 379.228 209.702 406.807 197.932 416.377C186.162 425.948 175.874 441.061 175.874 449.476C175.874 457.891 185.063 469.336 194.263 470.076C203.464 470.817 212.653 464.556 219.272 452.046C225.892 439.535 253.101 394.308 256.781 389.214C260.461 384.12 263.401 380.384 263.771 374.875C263.989 371.321 263.989 367.758 263.771 364.204C263.771 364.204 278.11 344.345 278.11 342.135C278.11 339.924 282.531 334.786 281.79 332.945C281.05 331.105 279.221 332.205 277.381 333.675C275.541 335.145 255.311 349.865 255.311 349.865C255.311 349.865 263.401 336.255 265.611 334.415C267.821 332.575 274.8 326.326 273.701 324.856C272.601 323.386 271.131 323.734 268.921 325.585C266.711 327.436 258.251 332.945 256.052 335.885C253.853 338.825 245.381 344.648 245.381 344.648C245.381 344.648 246.851 335.077 249.062 331.408C251.272 327.739 261.561 323.678 263.03 320.738C264.5 317.798 262.301 315.958 259.721 317.428Z" fill="#977D6E" stroke="#263238" stroke-width="1.122" stroke-linecap="round" stroke-linejoin="round"/>
<path d="M237.303 354.185C238.139 355.714 239.286 357.052 240.669 358.112C242.018 359.124 243.538 359.884 245.157 360.356C245.157 360.356 248.523 362.6 250.767 364.283C252.338 365.407 254.032 366.348 255.816 367.088" stroke="#263238" stroke-width="1.122" stroke-linecap="round" stroke-linejoin="round"/>
<path d="M277.852 341.282C277.852 341.282 262.301 354.622 259.362 357.192Z" fill="white"/>
<path d="M277.852 341.282C277.852 341.282 262.301 354.622 259.362 357.192" stroke="#263238" stroke-width="1.122" stroke-linecap="round" stroke-linejoin="round"/>
<path d="M345.083 329.972C345.083 329.972 337.734 323.24 334.065 320.682C330.396 318.124 323.26 314.41 321.308 315.274C319.355 316.138 320.186 317.439 321.532 318.517C322.878 319.594 326.02 321.546 329.958 324.127C333.897 326.707 344.87 331.476 344.87 331.476C344.87 331.476 347.035 332.306 345.083 329.972Z" fill="#C2C2C2" stroke="#263238" stroke-width="1.122" stroke-linecap="round" stroke-linejoin="round"/>
<path d="M316.405 328.098C316.405 328.098 314.576 324.418 317.145 324.048C318.485 323.809 319.856 323.809 321.195 324.048C321.195 324.048 320.657 320.502 321.768 319.403C322.878 318.303 325.627 319.089 327.826 321.299C330.026 323.509 348.404 329.939 348.774 334.348C349.144 338.757 328.578 378.846 328.578 378.846C328.578 378.846 362.047 407.536 372.336 414.156C382.625 420.776 401.385 429.606 403.225 438.84C405.065 448.074 401.385 456.5 392.196 458.699C383.006 460.898 380.796 461.65 369.756 452.82C358.715 443.99 323.754 400.961 317.538 390.291C311.322 379.621 311.647 380.002 312.388 372.272C313.128 364.541 317.167 349.473 317.167 349.473C314.986 346.171 313.022 342.73 311.288 339.173C309.044 334.393 309.448 332.183 311.288 331.083C312.786 330.325 314.403 329.828 316.068 329.613L316.405 328.098Z" fill="#977D6E" stroke="#263238" stroke-width="1.122" stroke-linecap="round" stroke-linejoin="round"/>
<path d="M316 370.757L322.979 351.997L313.038 329.938C313.038 329.938 313.408 327.694 316.348 328.098C319.288 328.502 331.248 342.022 333.088 343.862C334.928 345.703 334.008 352.738 331.428 358.617" fill="#977D6E"/>
<path d="M316 370.757L322.979 351.997L313.038 329.938C313.038 329.938 313.408 327.694 316.348 328.098C319.288 328.502 331.248 342.022 333.088 343.862C334.928 345.703 334.008 352.738 331.428 358.617" stroke="#263238" stroke-width="1.122" stroke-linecap="round" stroke-linejoin="round"/>
<path d="M321.15 324.048L340.303 334.763C343.332 336.469 344.847 338.555 343.523 342.909" stroke="#263238" stroke-width="1.122" stroke-linecap="round" stroke-linejoin="round"/>
<path d="M287.613 242.647C287.613 242.913 287.534 243.174 287.386 243.395C287.238 243.616 287.028 243.789 286.782 243.891C286.536 243.993 286.265 244.019 286.004 243.967C285.743 243.916 285.503 243.787 285.315 243.599C285.126 243.411 284.998 243.171 284.946 242.91C284.894 242.648 284.921 242.378 285.023 242.132C285.125 241.886 285.297 241.675 285.519 241.527C285.74 241.38 286.001 241.301 286.267 241.301C286.623 241.303 286.964 241.446 287.216 241.698C287.467 241.95 287.61 242.291 287.613 242.647Z" fill="#92E3A9" stroke="#263238" stroke-width="1.122" stroke-linecap="round" stroke-linejoin="round"/>
<path d="M279.389 244.812C279.761 244.812 280.063 244.511 280.063 244.139C280.063 243.767 279.761 243.466 279.389 243.466C279.018 243.466 278.716 243.767 278.716 244.139C278.716 244.511 279.018 244.812 279.389 244.812Z" fill="#92E3A9" stroke="#263238" stroke-width="1.122" stroke-linecap="round" stroke-linejoin="round"/>
<path d="M288.669 545.654C326.109 545.654 356.46 533.141 356.46 517.705C356.46 502.269 326.109 489.756 288.669 489.756C251.229 489.756 220.877 502.269 220.877 517.705C220.877 533.141 251.229 545.654 288.669 545.654Z" fill="#263238" stroke="#263238" stroke-width="1.122" stroke-linecap="round" stroke-linejoin="round"/>
<path d="M288.668 541.806C330.725 541.806 364.818 529.293 364.818 513.857C364.818 498.421 330.725 485.908 288.668 485.908C246.612 485.908 212.518 498.421 212.518 513.857C212.518 529.293 246.612 541.806 288.668 541.806Z" fill="white" stroke="#263238" stroke-width="1.122" stroke-linecap="round" stroke-linejoin="round"/>
<path d="M288.669 532.168C318.041 532.168 341.851 523.678 341.851 513.206C341.851 502.734 318.041 494.244 288.669 494.244C259.297 494.244 235.486 502.734 235.486 513.206C235.486 523.678 259.297 532.168 288.669 532.168Z" fill="white" stroke="#263238" stroke-width="1.122" stroke-linecap="round" stroke-linejoin="round"/>
<path d="M335.016 495.788C336.687 485.959 325.988 475.941 311.119 473.413C296.25 470.885 282.841 476.803 281.17 486.633C279.498 496.462 290.197 506.48 305.067 509.008C319.936 511.536 333.345 505.618 335.016 495.788Z" fill="#F7EA77" stroke="#263238" stroke-width="1.122" stroke-linecap="round" stroke-linejoin="round"/>
<path d="M315.047 487.591C314.665 489.835 311.681 491.114 308.315 490.542C304.949 489.969 302.592 487.737 302.963 485.538C303.333 483.338 306.329 482.014 309.695 482.575C313.061 483.136 315.417 485.392 315.047 487.591Z" fill="white" stroke="#263238" stroke-width="1.122" stroke-linecap="round" stroke-linejoin="round"/>
<path d="M265.275 524.067C280.612 524.067 293.044 516.396 293.044 506.934C293.044 497.472 280.612 489.801 265.275 489.801C249.938 489.801 237.505 497.472 237.505 506.934C237.505 516.396 249.938 524.067 265.275 524.067Z" fill="white" stroke="#263238" stroke-width="1.122" stroke-linecap="round" stroke-linejoin="round"/>
<path d="M268.495 508.079C285.721 508.079 299.686 499.353 299.686 488.589C299.686 477.826 285.721 469.1 268.495 469.1C251.268 469.1 237.303 477.826 237.303 488.589C237.303 499.353 251.268 508.079 268.495 508.079Z" fill="#F88DF3" stroke="#263826" stroke-width="1.122" stroke-linecap="round" stroke-linejoin="round"/>
<path d="M249.364 487.366L253.751 487.041" stroke="white" stroke-width="1.122" stroke-linecap="round" stroke-linejoin="round"/>
<path d="M247.255 482.486L250.173 484.113" stroke="#78EB1D" stroke-width="1.122" stroke-linecap="round" stroke-linejoin="round"/>
<path d="M255.861 479.737L252.933 480.87" stroke="white" stroke-width="1.122" stroke-linecap="round" stroke-linejoin="round"/>
<path d="M248.389 476.808L252.282 476.977" stroke="white" stroke-width="1.122" stroke-linecap="round" stroke-linejoin="round"/>
<path d="M265.432 474.867L263.973 476.158" stroke="white" stroke-width="1.122" stroke-linecap="round" stroke-linejoin="round"/>
<path d="M257.151 475.024L261.055 477.134" stroke="#CEE640" stroke-width="1.122" stroke-linecap="round" stroke-linejoin="round"/>
<path d="M272.904 474.867L275.013 476.651" stroke="white" stroke-width="1.122" stroke-linecap="round" stroke-linejoin="round"/>
<path d="M282.475 477.785L278.425 478.761" stroke="#F02FAE" stroke-width="1.122" stroke-linecap="round" stroke-linejoin="round"/>
<path d="M286.368 482.811L289.622 483.305" stroke="white" stroke-width="1.122" stroke-linecap="round" stroke-linejoin="round"/>
<path d="M286.537 476.977L290.912 479.569" stroke="white" stroke-width="1.122" stroke-linecap="round" stroke-linejoin="round"/>
<path d="M281.824 472.59L278.425 472.747" stroke="white" stroke-width="1.122" stroke-linecap="round" stroke-linejoin="round"/>
<path d="M265.106 471.288H269" stroke="#8FF53E" stroke-width="1.122" stroke-linecap="round" stroke-linejoin="round"/>
<path d="M297.409 486.065L293.19 487.198" stroke="white" stroke-width="1.122" stroke-linecap="round" stroke-linejoin="round"/>
<path d="M294.323 480.87L295.625 483.787" stroke="#EFCBCB" stroke-width="1.122" stroke-linecap="round" stroke-linejoin="round"/>
<path d="M289.947 488.5L286.862 491.26" stroke="#4D1717" stroke-width="1.122" stroke-linecap="round" stroke-linejoin="round"/>
<path d="M271.277 491.26L278.424 492.236" stroke="#195BBD" stroke-width="1.122" stroke-linecap="round" stroke-linejoin="round"/>
<path d="M280.041 487.523L283.608 486.716" stroke="#CB1F1F" stroke-width="1.122" stroke-linecap="round" stroke-linejoin="round"/>
<path d="M256.826 487.681L261.864 490.284" stroke="#F7EF30" stroke-width="1.122" stroke-linecap="round" stroke-linejoin="round"/>
<path d="M268.192 494.02L262.997 494.828" stroke="#9D4B4B" stroke-width="1.122" stroke-linecap="round" stroke-linejoin="round"/>
<path d="M274.52 496.129L276.146 498.07" stroke="#53BD50" stroke-width="1.122" stroke-linecap="round" stroke-linejoin="round"/>
<path d="M285.729 493.695L282.318 495.636" stroke="#AD3C87" stroke-width="1.122" stroke-linecap="round" stroke-linejoin="round"/>
<path d="M241.084 485.246L241.892 487.366" stroke="#41BD7A" stroke-width="1.122" stroke-linecap="round" stroke-linejoin="round"/>
<path d="M294.649 491.585L295.793 492.875" stroke="#CE1D1D" stroke-width="1.122" stroke-linecap="round" stroke-linejoin="round"/>
<path d="M274.531 484.247C274.531 485.908 271.838 487.254 268.506 487.254C265.174 487.254 262.492 485.908 262.492 484.247C262.492 482.587 265.185 481.24 268.506 481.24C271.827 481.24 274.531 482.587 274.531 484.247Z" fill="white" stroke="#263238" stroke-width="1.122" stroke-linecap="round" stroke-linejoin="round"/>
<path d="M268.495 508.079C282.733 508.079 294.727 502.121 298.463 493.975C297.519 494.044 296.609 494.361 295.827 494.895C293.044 496.982 292.809 499.529 290.497 498.362C288.186 497.195 286.559 496.982 283.328 499.058C280.096 501.133 277.538 503.692 272.68 500.909C267.822 498.126 262.728 499.058 258.554 501.38C254.38 503.703 251.149 496.746 250.7 492.808C250.251 488.87 245.382 492.584 241.208 491.428C239.256 490.878 238.122 488.803 237.46 486.749C237.367 487.358 237.318 487.973 237.314 488.589C237.303 499.349 251.328 508.079 268.495 508.079Z" fill="white" stroke="#263238" stroke-width="1.122" stroke-linecap="round" stroke-linejoin="round"/>
<path d="M307.63 531.237C324.249 531.237 337.722 522.531 337.722 511.792C337.722 501.054 324.249 492.348 307.63 492.348C291.011 492.348 277.538 501.054 277.538 511.792C277.538 522.531 291.011 531.237 307.63 531.237Z" fill="white" stroke="#263238" stroke-width="1.122" stroke-linecap="round" stroke-linejoin="round"/>
<path d="M307.63 492.348C291.013 492.348 277.538 501.055 277.538 511.792C277.578 514.779 278.577 517.674 280.388 520.05C281.644 520.442 282.938 520.697 284.248 520.813C289.106 521.284 290.733 516.415 296.287 519.691C301.841 522.967 303.928 526.423 309.246 523.169C314.564 519.916 317.347 517.84 321.509 519.927C325.672 522.014 326.839 520.387 328.69 517.616C330.541 514.844 330.541 514.373 333.784 514.373C336.847 514.373 336.6 511.467 337.352 508.763C335.097 499.484 322.654 492.348 307.63 492.348Z" fill="#B1E3FF" stroke="#263238" stroke-width="1.122" stroke-linecap="round" stroke-linejoin="round"/>
<path d="M277.538 511.826C277.538 512.286 277.538 512.746 277.617 513.195C283.429 503.501 292.348 496.948 298.497 493.302C297.285 493.549 296.118 493.84 294.974 494.188C288.081 498.615 282.157 504.394 277.561 511.175C277.549 511.355 277.538 511.568 277.538 511.826Z" fill="white" stroke="#263238" stroke-width="0.561" stroke-linecap="round" stroke-linejoin="round"/>
<path d="M293.067 518.558C298.565 503.231 311.019 496.623 319.265 493.874C318.615 493.694 317.953 493.537 317.268 493.392C308.797 496.556 297.072 503.546 291.855 518.614C292.256 518.55 292.662 518.531 293.067 518.558Z" fill="white" stroke="#263238" stroke-width="0.561" stroke-linecap="round" stroke-linejoin="round"/>
<path d="M309.942 492.415C309.179 492.415 308.404 492.348 307.63 492.348H306.879C292.192 498.34 284.136 509.806 279.816 519.198C279.995 519.482 280.186 519.762 280.388 520.039L280.624 520.106C285.044 510.3 293.65 498.003 309.942 492.415Z" fill="white" stroke="#263238" stroke-width="0.561" stroke-linecap="round" stroke-linejoin="round"/>
<path d="M337.049 507.798C336.937 507.454 336.814 507.106 336.679 506.755C329.666 509.144 324.034 513.98 319.692 519.231C320.075 519.319 320.451 519.439 320.814 519.59C325.021 514.609 330.407 510.065 337.049 507.798Z" fill="white" stroke="#263238" stroke-width="0.561" stroke-linecap="round" stroke-linejoin="round"/>
<path d="M329.363 498.362C328.948 498.082 328.522 497.823 328.084 497.554C315.585 501.032 305.914 509.055 299.193 521.531L300.124 522.171C306.879 509.582 316.662 501.605 329.363 498.362Z" fill="white" stroke="#263238" stroke-width="0.561" stroke-linecap="round" stroke-linejoin="round"/>
<path d="M333.425 501.818C333.156 501.526 332.898 501.234 332.606 500.954C322.972 505.136 315.143 512.614 310.525 522.047C310.458 522.193 310.402 522.328 310.334 522.463L312.141 521.341C316.785 512.583 324.3 505.69 333.425 501.818Z" fill="white" stroke="#263238" stroke-width="0.561" stroke-linecap="round" stroke-linejoin="round"/>
<path d="M313.88 505.778C313.88 507.046 311.03 508.09 307.507 508.09C303.984 508.09 301.145 507.046 301.145 505.778C301.145 504.511 303.995 503.456 307.507 503.456C311.019 503.456 313.88 504.499 313.88 505.778Z" fill="white" stroke="#263238" stroke-width="1.122" stroke-linecap="round" stroke-linejoin="round"/>
</svg>
